<svg width="104" height="44" viewBox="0 0 104 44" fill="none" xmlns="http://www.w3.org/2000/svg">
<path fill-rule="evenodd" clip-rule="evenodd" d="M2.49776 35.7165H2.51741L2.51773 35.7165C2.7955 35.7165 3.04379 35.5361 3.12774 35.2691C3.18758 35.078 3.49034 34.1027 3.54393 33.6927C4.33983 27.6313 8.54015 23.3987 13.7604 23.3987C19.3907 23.3987 23.9706 27.9795 23.9706 33.6097C23.9706 33.9634 24.2572 34.2501 24.6109 34.2501H72.3348C72.6885 34.2501 72.9751 33.9634 72.9751 33.6097C72.9751 27.9795 77.5568 23.3987 83.1852 23.3987C88.8155 23.3987 93.3963 27.9795 93.3963 33.6097C93.3963 33.9634 93.683 34.2501 94.0366 34.2501H102.21C102.487 34.2501 102.732 34.0732 102.819 33.8107C102.884 33.6122 104.389 28.9029 101.097 24.1845C97.2275 18.6418 88.6081 15.6034 75.4755 15.1523C73.7662 13.9941 59.9818 4.71982 55.1124 3.5025C51.7149 2.65223 43.2527 1.30273 35.0171 1.30273C28.2572 1.30273 22.8092 2.17001 18.8258 3.87676C15.257 5.40589 7.15897 12.7517 6.07026 13.7476C5.50483 13.9298 3.68381 14.6505 2.86839 16.5877C2.17889 18.2236 2.26889 19.4461 2.3483 20.5249L2.3486 20.529L2.35137 20.5664C2.37549 20.8923 2.39952 21.2171 2.39952 21.5534C2.39952 22.2764 2.01089 23.5064 1.63379 24.7L1.62875 24.716L1.61556 24.7578C1.30257 25.7496 0.979239 26.7742 0.83656 27.6338C0.510566 29.5951 1.75201 34.6608 1.8958 35.2315C1.96547 35.5093 2.21107 35.7076 2.49776 35.7165ZM94.6612 32.9683H101.716C101.86 32.2971 102.063 30.9169 101.797 29.2365C98.3726 28.7599 96.4881 27.7607 96.0388 26.1853C95.5947 24.6276 96.8094 23.0793 97.564 22.3017C93.1615 18.775 85.5553 16.7586 75.2506 16.4251C75.1292 16.4215 75.0113 16.3831 74.9113 16.3152L74.908 16.313L74.908 16.313C74.6114 16.1117 59.6446 5.95444 54.8045 4.74493C51.4643 3.90987 43.1387 2.58358 35.0192 2.58358C28.4333 2.58358 23.1549 3.41418 19.3325 5.05311C16.9029 6.09405 10.0443 11.9646 7.63557 14.0747C8.36061 14.3632 9.23794 14.7912 9.62452 15.2878C10.1095 15.9129 10.1452 17.5554 9.42 18.9165C8.74391 20.1811 7.24347 21.6208 3.921 21.6208L3.92126 21.6209C3.84212 21.6209 3.76196 21.6202 3.68076 21.6186C3.6622 22.531 3.27206 23.7677 2.85887 25.0775L2.85175 25.1001C2.5472 26.0629 2.23193 27.0605 2.10153 27.8429C1.96042 28.6904 2.21585 30.475 2.52577 32.104C3.8458 26.1548 8.30508 22.118 13.7613 22.118C19.8827 22.118 24.9004 26.9283 25.2335 32.9694H40.796V15.5628L12.0249 13.4002C11.7775 13.3824 11.5623 13.2225 11.4748 12.9903C11.3864 12.759 11.4399 12.4964 11.6132 12.3178C13.8889 9.96163 21.3544 5.56833 23.7766 4.99764C25.2145 4.66093 31.3395 4.37513 37.1556 4.37513C40.812 4.37513 45.9315 4.48141 49.5396 4.98692C57.1142 6.04616 70.2859 16.2117 70.8424 16.6429C71.0648 16.8162 71.1487 17.1154 71.0469 17.378C70.9505 17.6263 70.712 17.7888 70.4485 17.7888L70.4484 17.7889C70.4332 17.7889 70.418 17.7889 70.4011 17.788L42.0768 15.6591V32.9694H71.7159C72.049 26.9301 77.0674 22.118 83.1881 22.118C89.3086 22.1189 94.3279 26.9291 94.6612 32.9683ZM98.5253 23.1446C97.8819 23.7914 97.0091 24.9243 97.2695 25.835C97.5369 26.7688 99.0282 27.4927 101.493 27.8949C101.205 26.9298 100.745 25.909 100.033 24.8945C99.6012 24.2794 99.0981 23.6959 98.5253 23.1446ZM4.05032 17.0834C4.6262 15.7143 5.94312 15.1474 6.39577 14.9887C7.19802 15.2491 8.3441 15.7269 8.60292 16.0576C8.73064 16.2854 8.84226 17.4599 8.16617 18.5263C7.37692 19.7739 5.81046 20.392 3.62061 20.3353C3.54724 19.3447 3.49854 18.3937 4.05032 17.0834ZM42.0768 14.3745L68.3015 16.3476C64.4245 13.5228 55.0262 7.04655 49.3592 6.25432C47.5406 5.99939 45.0367 5.82015 42.0768 5.72758V14.3745ZM40.796 5.69358C39.6371 5.66807 38.4183 5.65503 37.1519 5.65503C30.9162 5.65503 25.2519 5.96495 24.0669 6.2427C22.1744 6.68926 16.6816 9.98209 13.67 12.2374L13.6705 12.2373L40.796 14.2782V5.69358ZM13.9494 42.6968C9.00046 42.6968 4.97527 38.6698 4.97527 33.7209C4.97527 28.772 9.00229 24.7468 13.9494 24.7468C18.8982 24.7468 22.9253 28.772 22.9253 33.7209C22.9244 38.6714 18.8982 42.6968 13.9494 42.6968ZM13.9494 26.0277C9.70695 26.0277 6.25519 29.4788 6.25519 33.7218C6.25519 37.9652 9.70718 41.4169 13.9494 41.4169C18.1927 41.4169 21.6444 37.9649 21.6444 33.7218C21.6444 29.4794 18.1924 26.0277 13.9494 26.0277ZM13.9493 39.4615C10.7859 39.4615 8.21093 36.8866 8.21093 33.7232C8.21093 30.5597 10.7859 27.9857 13.9493 27.9857C17.1128 27.9857 19.6877 30.5597 19.6877 33.7232C19.6877 36.8866 17.1128 39.4615 13.9493 39.4615ZM13.9493 29.2656C11.4905 29.2656 9.49086 31.2653 9.49086 33.7222C9.49086 36.1792 11.4906 38.1807 13.9493 38.1807C16.4081 38.1807 18.4078 36.181 18.4078 33.7222C18.4078 31.2644 16.4072 29.2656 13.9493 29.2656ZM74.3284 33.7209C74.3284 38.6698 78.3536 42.6968 83.3025 42.6968C88.2532 42.6968 92.2784 38.6714 92.2784 33.7209C92.2784 28.772 88.2514 24.7468 83.3025 24.7468C78.3554 24.7468 74.3284 28.772 74.3284 33.7209ZM75.6083 33.7218C75.6083 29.4788 79.0601 26.0277 83.3025 26.0277C87.5455 26.0277 90.9975 29.4794 90.9975 33.7218C90.9975 37.9649 87.5458 41.4169 83.3025 41.4169C79.0603 41.4169 75.6083 37.9652 75.6083 33.7218ZM83.3025 39.4615C80.139 39.4615 77.5641 36.8866 77.5641 33.7232C77.5641 30.5597 80.139 27.9857 83.3025 27.9857C86.466 27.9857 89.0409 30.5597 89.0409 33.7232C89.0418 36.8866 86.4669 39.4615 83.3025 39.4615ZM83.3025 29.2656C80.8437 29.2656 78.844 31.2653 78.844 33.7222C78.844 36.1792 80.8437 38.1807 83.3025 38.1807C85.7613 38.1807 87.761 36.181 87.761 33.7222C87.761 31.2644 85.7613 29.2656 83.3025 29.2656ZM48.7809 19.073C48.7979 19.0739 48.8131 19.0739 48.8283 19.0739C49.1596 19.0739 49.4419 18.8176 49.466 18.4818C49.4919 18.1281 49.2266 17.8226 48.8747 17.7967L45.6114 17.56C45.2622 17.5279 44.9522 17.7976 44.9263 18.1513C44.9004 18.505 45.1657 18.8104 45.5176 18.8363L48.7809 19.073ZM18.3987 16.7942C18.3836 16.7942 18.3684 16.7942 18.3514 16.7934L15.088 16.5576C14.7361 16.5317 14.4709 16.2262 14.4968 15.8726C14.5227 15.5189 14.8398 15.259 15.1818 15.2813L18.4452 15.5171C18.7971 15.543 19.0623 15.8484 19.0364 16.2021C19.0123 16.5361 18.7319 16.7942 18.3987 16.7942Z" fill="#5538EE"/>
<path d="M2.51741 35.7165L2.54884 35.3428L2.53316 35.3415H2.51741V35.7165ZM2.49776 35.7165L2.48608 36.0915H2.49776V35.7165ZM2.51773 35.7165L2.4863 36.0902L2.50199 36.0915H2.51773V35.7165ZM3.12774 35.2691L3.48548 35.3815L3.48561 35.3811L3.12774 35.2691ZM3.54393 33.6927L3.17212 33.6439L3.1721 33.6441L3.54393 33.6927ZM102.819 33.8107L103.175 33.9282L103.175 33.9277L102.819 33.8107ZM101.097 24.1845L101.404 23.9699L101.404 23.9699L101.097 24.1845ZM75.4755 15.1523L75.2651 15.4628L75.3546 15.5234L75.4626 15.5271L75.4755 15.1523ZM55.1124 3.5025L55.0214 3.86628L55.0215 3.8663L55.1124 3.5025ZM18.8258 3.87676L18.6781 3.53206L18.6781 3.53206L18.8258 3.87676ZM6.07026 13.7476L6.18529 14.1045L6.26306 14.0794L6.32336 14.0243L6.07026 13.7476ZM2.86839 16.5877L3.21395 16.7334L3.21402 16.7332L2.86839 16.5877ZM2.3483 20.5249L1.97432 20.5524L1.97432 20.5524L2.3483 20.5249ZM2.3486 20.529L1.97462 20.5565L1.97463 20.5567L2.3486 20.529ZM2.35137 20.5664L1.97739 20.5941L1.97739 20.5941L2.35137 20.5664ZM1.63379 24.7L1.27621 24.587L1.27621 24.587L1.63379 24.7ZM1.62875 24.716L1.27117 24.603L1.27113 24.6031L1.62875 24.716ZM1.61556 24.7578L1.97317 24.8706L1.97317 24.8706L1.61556 24.7578ZM0.83656 27.6338L1.20648 27.6953L1.2065 27.6952L0.83656 27.6338ZM1.8958 35.2315L2.25953 35.1403L2.25943 35.1399L1.8958 35.2315ZM101.716 32.9683V33.3433H102.02L102.083 33.0468L101.716 32.9683ZM94.6612 32.9683L94.2867 32.9889L94.3063 33.3433H94.6612V32.9683ZM101.797 29.2365L102.168 29.1779L102.124 28.9034L101.849 28.865L101.797 29.2365ZM96.0388 26.1853L95.6782 26.2881L95.6782 26.2882L96.0388 26.1853ZM97.564 22.3017L97.8331 22.5629L98.1204 22.2669L97.7985 22.009L97.564 22.3017ZM75.2506 16.4251L75.2628 16.0503L75.2617 16.0502L75.2506 16.4251ZM74.9113 16.3152L74.7004 16.6253L74.7007 16.6255L74.9113 16.3152ZM74.908 16.313L74.6912 16.6191L74.6972 16.6231L74.908 16.313ZM74.908 16.313L75.1248 16.0069L75.1185 16.0027L74.908 16.313ZM54.8045 4.74493L54.7136 5.10873L54.7136 5.10874L54.8045 4.74493ZM19.3325 5.05311L19.4802 5.39781L19.4803 5.39776L19.3325 5.05311ZM7.63557 14.0747L7.38847 13.7927L6.92741 14.1966L7.49695 14.4232L7.63557 14.0747ZM9.62452 15.2878L9.92083 15.0579L9.92043 15.0574L9.62452 15.2878ZM9.42 18.9165L9.75071 19.0933L9.75095 19.0928L9.42 18.9165ZM3.921 21.6208V21.2458L3.7888 21.9718L3.921 21.6208ZM3.92126 21.6209V21.9959L4.05346 21.27L3.92126 21.6209ZM3.68076 21.6186L3.68802 21.2437L3.31346 21.2364L3.30584 21.611L3.68076 21.6186ZM2.85887 25.0775L2.50124 24.9647L2.50124 24.9647L2.85887 25.0775ZM2.85175 25.1001L3.20928 25.2132L3.20938 25.2129L2.85175 25.1001ZM2.10153 27.8429L1.73164 27.7812L1.73163 27.7813L2.10153 27.8429ZM2.52577 32.104L2.15738 32.1741L2.89187 32.1852L2.52577 32.104ZM25.2335 32.9694L24.8591 32.9901L24.8786 33.3444H25.2335V32.9694ZM40.796 32.9694V33.3444H41.171V32.9694H40.796ZM40.796 15.5628H41.171V15.2149L40.8241 15.1888L40.796 15.5628ZM12.0249 13.4002L12.053 13.0263L12.0519 13.0262L12.0249 13.4002ZM11.4748 12.9903L11.8257 12.858L11.8251 12.8564L11.4748 12.9903ZM11.6132 12.3178L11.8824 12.5789L11.8829 12.5783L11.6132 12.3178ZM23.7766 4.99764L23.6911 4.63252L23.6906 4.63264L23.7766 4.99764ZM49.5396 4.98692L49.4876 5.3583L49.4877 5.35831L49.5396 4.98692ZM70.8424 16.6429L71.0729 16.3471L71.0721 16.3465L70.8424 16.6429ZM71.0469 17.378L71.3965 17.5138L71.3966 17.5135L71.0469 17.378ZM70.4485 17.7888V17.4138H70.3145L70.2109 17.4988L70.4485 17.7888ZM70.4484 17.7889V18.1639H70.5824L70.6861 18.079L70.4484 17.7889ZM70.4011 17.788L70.373 18.1621L70.3814 18.1625L70.4011 17.788ZM42.0768 15.6591L42.1049 15.2851L41.7018 15.2548V15.6591H42.0768ZM42.0768 32.9694H41.7018V33.3444H42.0768V32.9694ZM71.7159 32.9694V33.3444H72.0707L72.0903 32.9901L71.7159 32.9694ZM83.1881 22.118L83.1881 21.743H83.1881V22.118ZM98.5253 23.1446L98.7854 22.8744L98.5196 22.6187L98.2595 22.8802L98.5253 23.1446ZM97.2695 25.835L96.9089 25.9381L96.909 25.9383L97.2695 25.835ZM101.493 27.8949L101.432 28.265L102.023 28.3615L101.852 27.7877L101.493 27.8949ZM100.033 24.8945L99.7259 25.11L99.7259 25.11L100.033 24.8945ZM6.39577 14.9887L6.51156 14.6321L6.39116 14.593L6.27171 14.6348L6.39577 14.9887ZM4.05032 17.0834L4.39593 17.229L4.39599 17.2288L4.05032 17.0834ZM8.60292 16.0576L8.93001 15.8742L8.91595 15.8492L8.89824 15.8265L8.60292 16.0576ZM8.16617 18.5263L7.84946 18.3255L7.84926 18.3258L8.16617 18.5263ZM3.62061 20.3353L3.24664 20.363L3.2717 20.7014L3.61091 20.7102L3.62061 20.3353ZM68.3015 16.3476L68.2733 16.7215L69.5872 16.8204L68.5223 16.0445L68.3015 16.3476ZM42.0768 14.3745H41.7018V14.7224L42.0486 14.7485L42.0768 14.3745ZM49.3592 6.25432L49.3071 6.62568L49.3073 6.6257L49.3592 6.25432ZM42.0768 5.72758L42.0885 5.35276L41.7018 5.34067V5.72758H42.0768ZM40.796 5.69358H41.171V5.32674L40.8043 5.31867L40.796 5.69358ZM24.0669 6.2427L23.9813 5.8776L23.9808 5.87772L24.0669 6.2427ZM13.67 12.2374L13.4452 11.9372L12.3667 12.7449L13.7074 12.6105L13.67 12.2374ZM13.6705 12.2373L13.6986 11.8634L13.6658 11.8609L13.6331 11.8642L13.6705 12.2373ZM40.796 14.2782L40.7679 14.6521L41.171 14.6824V14.2782H40.796ZM22.9253 33.7209L23.3003 33.721V33.7209H22.9253ZM89.0409 33.7232L88.6659 33.7232L88.6659 33.7233L89.0409 33.7232ZM48.8283 19.0739L48.8283 19.4489L48.8283 19.4489L48.8283 19.0739ZM48.7809 19.073L48.7538 19.4471L48.7612 19.4475L48.7809 19.073ZM49.466 18.4818L49.092 18.4544L49.0919 18.4549L49.466 18.4818ZM48.8747 17.7967L48.9023 17.4227L48.9019 17.4227L48.8747 17.7967ZM45.6114 17.56L45.577 17.9335L45.5842 17.9341L45.6114 17.56ZM44.9263 18.1513L45.3003 18.1787L45.3003 18.1787L44.9263 18.1513ZM45.5176 18.8363L45.4901 19.2103L45.4905 19.2103L45.5176 18.8363ZM18.3514 16.7934L18.3244 17.1674L18.3317 17.1678L18.3514 16.7934ZM18.3987 16.7942L18.3987 17.1692L18.3987 17.1692L18.3987 16.7942ZM15.088 16.5576L15.0605 16.9316L15.061 16.9316L15.088 16.5576ZM14.4968 15.8726L14.8708 15.8999L14.8708 15.8999L14.4968 15.8726ZM15.1818 15.2813L15.2088 14.9073L15.2063 14.9071L15.1818 15.2813ZM18.4452 15.5171L18.4727 15.1431L18.4722 15.1431L18.4452 15.5171ZM19.0364 16.2021L18.6624 16.1747L18.6624 16.1751L19.0364 16.2021ZM2.51741 35.3415H2.49776V36.0915H2.51741V35.3415ZM2.54916 35.3428L2.54884 35.3428L2.48598 36.0902L2.4863 36.0902L2.54916 35.3428ZM2.77 35.1566C2.73546 35.2665 2.63268 35.3415 2.51773 35.3415V36.0915C2.95833 36.0915 3.35212 35.8057 3.48548 35.3815L2.77 35.1566ZM3.1721 33.6441C3.14939 33.8178 3.0682 34.1384 2.97723 34.4613C2.88881 34.7751 2.79941 35.0627 2.76987 35.157L3.48561 35.3811C3.51591 35.2843 3.60781 34.9888 3.69913 34.6647C3.7879 34.3496 3.88489 33.9775 3.91577 33.7413L3.1721 33.6441ZM13.7604 23.0237C8.30782 23.0237 3.98631 27.4431 3.17212 33.6439L3.91574 33.7415C4.69334 27.8194 8.77249 23.7737 13.7604 23.7737V23.0237ZM24.3456 33.6097C24.3456 27.7724 19.5978 23.0237 13.7604 23.0237V23.7737C19.1835 23.7737 23.5956 28.1865 23.5956 33.6097H24.3456ZM24.6109 33.8751C24.4643 33.8751 24.3456 33.7563 24.3456 33.6097H23.5956C23.5956 34.1705 24.0501 34.6251 24.6109 34.6251V33.8751ZM72.3348 33.8751H24.6109V34.6251H72.3348V33.8751ZM72.6001 33.6097C72.6001 33.7563 72.4814 33.8751 72.3348 33.8751V34.6251C72.8956 34.6251 73.3501 34.1705 73.3501 33.6097H72.6001ZM83.1852 23.0237C77.3497 23.0237 72.6001 27.7724 72.6001 33.6097H73.3501C73.3501 28.1866 77.7639 23.7737 83.1852 23.7737V23.0237ZM93.7713 33.6097C93.7713 27.7724 89.0226 23.0237 83.1852 23.0237V23.7737C88.6084 23.7737 93.0213 28.1866 93.0213 33.6097H93.7713ZM94.0366 33.8751C93.8901 33.8751 93.7713 33.7563 93.7713 33.6097H93.0213C93.0213 34.1705 93.4759 34.6251 94.0366 34.6251V33.8751ZM102.21 33.8751H94.0366V34.6251H102.21V33.8751ZM102.463 33.6932C102.427 33.8018 102.326 33.8751 102.21 33.8751V34.6251C102.649 34.6251 103.037 34.3446 103.175 33.9282L102.463 33.6932ZM100.789 24.3991C103.977 28.9688 102.517 33.5289 102.462 33.6936L103.175 33.9277C103.251 33.6955 104.8 28.837 101.404 23.9699L100.789 24.3991ZM75.4626 15.5271C88.5798 15.9776 97.0302 19.0142 100.789 24.3992L101.404 23.9699C97.4249 18.2694 88.6364 15.2291 75.4884 14.7776L75.4626 15.5271ZM55.0215 3.8663C56.1905 4.15854 57.9296 4.94653 59.9329 6.00502C61.9267 7.05854 64.1522 8.36359 66.283 9.6693C70.5443 12.2804 74.4123 14.8849 75.2651 15.4628L75.6859 14.8419C74.8294 14.2615 70.9505 11.6497 66.6749 9.02981C64.5374 7.72001 62.2969 6.40586 60.2832 5.3419C58.279 4.2829 56.4691 3.45511 55.2034 3.13869L55.0215 3.8663ZM35.0171 1.67773C43.2215 1.67773 51.6531 3.02334 55.0214 3.86628L55.2035 3.13871C51.7766 2.28113 43.2839 0.927734 35.0171 0.927734V1.67773ZM18.9735 4.22145C22.8915 2.5427 28.2827 1.67773 35.0171 1.67773V0.927734C28.2317 0.927734 22.7268 1.79732 18.6781 3.53206L18.9735 4.22145ZM6.32336 14.0243C6.86577 13.5281 9.15713 11.4476 11.7567 9.30133C13.0567 8.22809 14.4305 7.14112 15.6992 6.22857C16.974 5.31169 18.1214 4.58657 18.9735 4.22145L18.6781 3.53206C17.7458 3.93151 16.5427 4.69805 15.2613 5.6197C13.9739 6.54569 12.586 7.64413 11.2792 8.72297C8.66545 10.8809 6.36346 12.9712 5.81716 13.4709L6.32336 14.0243ZM3.21402 16.7332C3.96401 14.9515 5.64943 14.2772 6.18529 14.1045L5.95523 13.3906C5.36024 13.5824 3.40362 14.3496 2.52277 16.4422L3.21402 16.7332ZM2.72229 20.4974C2.64373 19.4303 2.56074 18.2832 3.21395 16.7334L2.52283 16.4421C1.79705 18.1641 1.89404 19.462 1.97432 20.5524L2.72229 20.4974ZM2.72259 20.5015L2.72229 20.4974L1.97432 20.5524L1.97462 20.5565L2.72259 20.5015ZM2.72535 20.5387L2.72258 20.5013L1.97463 20.5567L1.97739 20.5941L2.72535 20.5387ZM2.77452 21.5534C2.77452 21.201 2.74932 20.8627 2.72535 20.5387L1.97739 20.5941C2.00166 20.922 2.02452 21.2331 2.02452 21.5534H2.77452ZM1.99137 24.813C2.17924 24.2183 2.37363 23.6033 2.52067 23.0458C2.66574 22.4958 2.77452 21.9671 2.77452 21.5534H2.02452C2.02452 21.8626 1.93898 22.3105 1.79547 22.8546C1.65392 23.3912 1.46544 23.9881 1.27621 24.587L1.99137 24.813ZM1.98633 24.8289L1.99137 24.813L1.27621 24.587L1.27117 24.603L1.98633 24.8289ZM1.97317 24.8706L1.98637 24.8288L1.27113 24.6031L1.25794 24.6449L1.97317 24.8706ZM1.2065 27.6952C1.34392 26.8673 1.65768 25.8704 1.97317 24.8706L1.25794 24.6449C0.947456 25.6288 0.614557 26.6812 0.466621 27.5724L1.2065 27.6952ZM2.25943 35.1399C2.18856 34.8586 1.84445 33.4585 1.55897 31.8871C1.4162 31.1013 1.28902 30.2776 1.21761 29.5324C1.14546 28.7795 1.13334 28.1354 1.20648 27.6953L0.466635 27.5724C0.376779 28.113 0.397591 28.8375 0.471026 29.6039C0.545193 30.3779 0.676238 31.2241 0.821049 32.0212C1.11073 33.6157 1.45925 35.0337 1.53216 35.3231L2.25943 35.1399ZM2.50944 35.3417C2.39052 35.338 2.28847 35.2557 2.25953 35.1403L1.53206 35.3228C1.64246 35.7629 2.03163 36.0771 2.48608 36.0913L2.50944 35.3417ZM101.716 32.5933H94.6612V33.3433H101.716V32.5933ZM101.427 29.295C101.683 30.9168 101.487 32.2485 101.35 32.8897L102.083 33.0468C102.233 32.3456 102.442 30.917 102.168 29.1779L101.427 29.295ZM101.849 28.865C100.157 28.6296 98.8783 28.2688 97.9779 27.7916C97.0834 27.3176 96.5881 26.7441 96.3994 26.0824L95.6782 26.2882C95.9388 27.2019 96.6104 27.9157 97.6267 28.4543C98.637 28.9897 100.013 29.3668 101.745 29.6079L101.849 28.865ZM96.3994 26.0825C96.2128 25.4278 96.3677 24.7522 96.6867 24.1199C97.0052 23.4883 97.4691 22.938 97.8331 22.5629L97.2949 22.0405C96.9043 22.443 96.3835 23.0557 96.017 23.7821C95.651 24.5077 95.4207 25.3851 95.6782 26.2881L96.3994 26.0825ZM75.2385 16.7999C85.5198 17.1326 93.024 19.1454 97.3296 22.5944L97.7985 22.009C93.2989 18.4046 85.5907 16.3845 75.2628 16.0503L75.2385 16.7999ZM74.7007 16.6255C74.8594 16.7332 75.0465 16.7942 75.2396 16.7999L75.2617 16.0502C75.2119 16.0488 75.1631 16.0329 75.1218 16.0049L74.7007 16.6255ZM74.6972 16.6231L74.7004 16.6253L75.1221 16.0051L75.1189 16.0029L74.6972 16.6231ZM74.6912 16.619L74.6913 16.619L75.1248 16.007L75.1247 16.007L74.6912 16.619ZM54.7136 5.10874C55.8726 5.39836 57.6778 6.23808 59.768 7.3645C61.847 8.48491 64.1737 9.86986 66.3626 11.2258C70.7397 13.9374 74.5505 16.5236 74.6974 16.6233L75.1185 16.0027C74.9688 15.9011 71.1479 13.308 66.7575 10.5882C64.5626 9.22855 62.2216 7.83482 60.1238 6.70428C58.0371 5.57976 56.1565 4.69625 54.8954 4.38111L54.7136 5.10874ZM35.0192 2.95858C43.1075 2.95858 51.4026 4.28099 54.7136 5.10873L54.8955 4.38112C51.526 3.53874 43.1698 2.20858 35.0192 2.20858V2.95858ZM19.4803 5.39776C23.2367 3.78713 28.4577 2.95858 35.0192 2.95858V2.20858C28.4088 2.20858 23.0731 3.04123 19.1847 4.70845L19.4803 5.39776ZM7.88268 14.3568C9.08495 13.3036 11.3973 11.3123 13.7109 9.45542C14.8679 8.52685 16.0222 7.63434 17.0364 6.91036C18.0586 6.18074 18.9138 5.64048 19.4802 5.39781L19.1848 4.70841C18.5364 4.98621 17.6231 5.57011 16.6007 6.29992C15.5704 7.03538 14.4039 7.93756 13.2415 8.87051C10.9162 10.7367 8.59491 12.7358 7.38847 13.7927L7.88268 14.3568ZM9.92043 15.0574C9.68208 14.7512 9.31559 14.4909 8.94329 14.2778C8.56413 14.0607 8.1459 13.8742 7.7742 13.7263L7.49695 14.4232C7.85028 14.5637 8.23323 14.7355 8.57064 14.9286C8.91491 15.1257 9.18038 15.3277 9.32862 15.5181L9.92043 15.0574ZM9.75095 19.0928C10.1429 18.3572 10.3281 17.5493 10.3509 16.8382C10.3731 16.145 10.2422 15.4722 9.92083 15.0579L9.32822 15.5176C9.49181 15.7285 9.62127 16.1896 9.60127 16.8142C9.58184 17.4208 9.42232 18.1147 9.08905 18.7402L9.75095 19.0928ZM3.921 21.9958C5.63753 21.9958 6.9117 21.6234 7.85394 21.0656C8.79653 20.5075 9.38542 19.7766 9.75071 19.0933L9.08929 18.7397C8.7785 19.321 8.27912 19.9423 7.47185 20.4202C6.66423 20.8984 5.52694 21.2458 3.921 21.2458V21.9958ZM4.05346 21.27L4.0532 21.2699L3.7888 21.9718L3.78906 21.9719L4.05346 21.27ZM3.67351 21.9935C3.75717 21.9952 3.83975 21.9959 3.92126 21.9959V21.2459C3.8445 21.2459 3.76676 21.2452 3.68802 21.2437L3.67351 21.9935ZM3.21649 25.1903C3.62257 23.9031 4.03577 22.6054 4.05568 21.6262L3.30584 21.611C3.28864 22.4566 2.92154 23.6324 2.50124 24.9647L3.21649 25.1903ZM3.20938 25.2129L3.2165 25.1903L2.50124 24.9647L2.49412 24.9873L3.20938 25.2129ZM2.47143 27.9045C2.5965 27.1541 2.90189 26.185 3.20928 25.2132L2.49421 24.987C2.19251 25.9408 1.86736 26.9669 1.73164 27.7812L2.47143 27.9045ZM2.89417 32.0339C2.74014 31.2243 2.60066 30.3811 2.51717 29.6385C2.43236 28.8841 2.41025 28.272 2.47144 27.9045L1.73163 27.7813C1.65171 28.2613 1.68676 28.9653 1.77186 29.7223C1.85829 30.4911 2.00149 31.3547 2.15738 32.1741L2.89417 32.0339ZM13.7613 21.743C8.09645 21.743 3.51019 25.9362 2.15968 32.0228L2.89187 32.1852C4.18141 26.3735 8.51371 22.493 13.7613 22.493V21.743ZM25.608 32.9488C25.2639 26.7101 20.083 21.743 13.7613 21.743V22.493C19.6824 22.493 24.5369 27.1465 24.8591 32.9901L25.608 32.9488ZM40.796 32.5944H25.2335V33.3444H40.796V32.5944ZM40.421 15.5628V32.9694H41.171V15.5628H40.421ZM11.9968 13.7742L40.7679 15.9367L40.8241 15.1888L12.053 13.0263L11.9968 13.7742ZM11.1239 13.1225C11.2632 13.4923 11.6054 13.7459 11.9979 13.7743L12.0519 13.0262C11.9497 13.0188 11.8614 12.9527 11.8257 12.858L11.1239 13.1225ZM11.344 12.0567C11.0692 12.34 10.984 12.7566 11.1245 13.1242L11.8251 12.8564C11.7887 12.7613 11.8107 12.6528 11.8824 12.5789L11.344 12.0567ZM23.6906 4.63264C23.0406 4.78577 22.0873 5.18415 21.0088 5.7143C19.9218 6.24859 18.6814 6.92998 17.4478 7.66614C14.9928 9.13113 12.5191 10.8401 11.3435 12.0572L11.8829 12.5783C12.983 11.4393 15.3799 9.77354 17.8321 8.31018C19.0521 7.58216 20.2745 6.91096 21.3396 6.38738C22.4132 5.85965 23.3014 5.49486 23.8626 5.36265L23.6906 4.63264ZM37.1556 4.00013C34.2421 4.00013 31.251 4.0717 28.8068 4.18552C26.3801 4.29854 24.4508 4.45461 23.6911 4.63252L23.8621 5.36277C24.5403 5.20396 26.3924 5.04878 28.8417 4.93471C31.2736 4.82146 34.2531 4.75013 37.1556 4.75013V4.00013ZM49.5917 4.61555C45.955 4.10604 40.8122 4.00013 37.1556 4.00013V4.75013C40.8119 4.75013 45.908 4.85678 49.4876 5.3583L49.5917 4.61555ZM71.0721 16.3465C70.7898 16.1278 67.3471 13.4704 63.0234 10.7336C60.8616 9.36521 58.4742 7.97358 56.1478 6.85636C53.8268 5.74173 51.5422 4.88832 49.5916 4.61554L49.4877 5.35831C51.3244 5.61515 53.5267 6.42965 55.8231 7.53244C58.1141 8.63266 60.4747 10.008 62.6222 11.3673C66.9171 14.0858 70.3385 16.7269 70.6127 16.9394L71.0721 16.3465ZM71.3966 17.5135C71.5588 17.0952 71.4246 16.6212 71.0729 16.3471L70.6119 16.9388C70.705 17.0112 70.7387 17.1356 70.6973 17.2424L71.3966 17.5135ZM70.4485 18.1638C70.8671 18.1638 71.2441 17.9059 71.3965 17.5138L70.6974 17.2422C70.6568 17.3466 70.557 17.4138 70.4485 17.4138V18.1638ZM70.6861 18.079L70.6862 18.0789L70.2109 17.4988L70.2107 17.4989L70.6861 18.079ZM70.3814 18.1625C70.4095 18.164 70.434 18.1639 70.4484 18.1639V17.4139C70.4324 17.4139 70.4266 17.4139 70.4208 17.4136L70.3814 18.1625ZM42.0487 16.033L70.373 18.162L70.4292 17.4141L42.1049 15.2851L42.0487 16.033ZM42.4518 32.9694V15.6591H41.7018V32.9694H42.4518ZM71.7159 32.5944H42.0768V33.3444H71.7159V32.5944ZM83.1881 21.743C76.867 21.743 71.6855 26.712 71.3414 32.9488L72.0903 32.9901C72.4125 27.1483 77.2677 22.493 83.1881 22.493V21.743ZM95.0356 32.9476C94.6914 26.7108 89.5089 21.7439 83.1881 21.743L83.188 22.493C89.1084 22.4938 93.9644 27.1474 94.2867 32.9889L95.0356 32.9476ZM98.2595 22.8802C97.924 23.2174 97.5196 23.6898 97.2308 24.2084C96.9482 24.716 96.7374 25.3384 96.9089 25.9381L97.63 25.732C97.5411 25.421 97.6365 25.0216 97.8861 24.5733C98.1295 24.1361 98.4833 23.7186 98.7912 23.4091L98.2595 22.8802ZM96.909 25.9383C97.0867 26.5589 97.6449 27.0371 98.393 27.4014C99.1528 27.7716 100.181 28.0608 101.432 28.265L101.553 27.5248C100.34 27.3267 99.3902 27.053 98.7214 26.7272C98.0408 26.3956 97.7197 26.045 97.63 25.7318L96.909 25.9383ZM99.7259 25.11C100.413 26.0891 100.856 27.073 101.133 28.0022L101.852 27.7877C101.553 26.7867 101.077 25.7288 100.34 24.6791L99.7259 25.11ZM98.2653 23.4148C98.8218 23.9505 99.3089 24.5157 99.7259 25.11L100.34 24.6791C99.8934 24.043 99.3744 23.4414 98.7854 22.8744L98.2653 23.4148ZM6.27171 14.6348C5.79346 14.8025 4.34456 15.4167 3.70465 16.9381L4.39599 17.2288C4.90784 16.0119 6.09278 15.4923 6.51984 15.3426L6.27171 14.6348ZM8.89824 15.8265C8.78966 15.6878 8.62014 15.5671 8.45693 15.4675C8.28388 15.362 8.07726 15.2564 7.86019 15.1563C7.42558 14.9558 6.92444 14.7661 6.51156 14.6321L6.27999 15.3454C6.66936 15.4718 7.14238 15.6511 7.54607 15.8373C7.74815 15.9305 7.92672 16.0227 8.06643 16.1079C8.21597 16.1991 8.28677 16.2621 8.30759 16.2887L8.89824 15.8265ZM8.48288 18.727C8.85906 18.1337 9.01465 17.5132 9.05949 17.0108C9.08193 16.7593 9.07709 16.5326 9.05628 16.3476C9.0373 16.1788 9.0004 15.9998 8.93001 15.8742L8.27583 16.241C8.2693 16.2294 8.29424 16.2826 8.31098 16.4314C8.3259 16.564 8.33065 16.7402 8.31246 16.9441C8.27601 17.3525 8.14937 17.8524 7.84946 18.3255L8.48288 18.727ZM3.61091 20.7102C5.86186 20.7684 7.59219 20.1351 8.48309 18.7267L7.84926 18.3258C7.16166 19.4127 5.75905 20.0155 3.63032 19.9604L3.61091 20.7102ZM3.70472 16.9379C3.1177 18.3318 3.17202 19.3555 3.24664 20.363L3.99459 20.3076C3.92246 19.3338 3.87937 18.4556 4.39593 17.229L3.70472 16.9379ZM68.3296 15.9736L42.1049 14.0006L42.0486 14.7485L68.2733 16.7215L68.3296 15.9736ZM49.3073 6.6257C52.0603 7.01057 55.7701 8.79145 59.3123 10.8625C62.8395 12.9247 66.147 15.2418 68.0807 16.6507L68.5223 16.0445C66.579 14.6286 63.2488 12.2952 59.6909 10.215C56.148 8.14363 52.3251 6.29029 49.4111 5.88293L49.3073 6.6257ZM42.065 6.1024C45.0189 6.19478 47.5077 6.37345 49.3071 6.62568L49.4112 5.88295C47.5736 5.62534 45.0544 5.44552 42.0885 5.35276L42.065 6.1024ZM42.4518 14.3745V5.72758H41.7018V14.3745H42.4518ZM37.1519 6.03003C38.4158 6.03003 39.6318 6.04305 40.7878 6.06849L40.8043 5.31867C39.6424 5.2931 38.4209 5.28003 37.1519 5.28003V6.03003ZM24.1525 6.60781C24.7043 6.47848 26.3778 6.33205 28.7334 6.21928C31.0708 6.10738 34.0398 6.03003 37.1519 6.03003V5.28003C34.0284 5.28003 31.0474 5.35764 28.6975 5.47014C26.3658 5.58177 24.6146 5.72918 23.9813 5.8776L24.1525 6.60781ZM13.8948 12.5376C15.3866 11.4204 17.5003 10.0411 19.4774 8.88552C20.4654 8.30801 21.4152 7.78876 22.2328 7.3872C23.0583 6.98174 23.7241 6.70889 24.153 6.60768L23.9808 5.87772C23.4635 5.99979 22.7329 6.306 21.9022 6.71402C21.0635 7.12594 20.0971 7.65458 19.0989 8.23802C17.1035 9.4043 14.965 10.7991 13.4452 11.9372L13.8948 12.5376ZM13.6331 11.8642L13.6326 11.8643L13.7074 12.6105L13.7078 12.6105L13.6331 11.8642ZM40.8242 13.9042L13.6986 11.8634L13.6423 12.6113L40.7679 14.6521L40.8242 13.9042ZM40.421 5.69358V14.2782H41.171V5.69358H40.421ZM4.60027 33.7209C4.60027 38.8768 8.79325 43.0718 13.9494 43.0718V42.3218C9.20766 42.3218 5.35027 38.4628 5.35027 33.7209H4.60027ZM13.9494 24.3718C8.79523 24.3718 4.60027 28.5649 4.60027 33.7209H5.35027C5.35027 28.9792 9.20934 25.1218 13.9494 25.1218V24.3718ZM23.3003 33.7209C23.3003 28.5648 19.1053 24.3718 13.9494 24.3718V25.1218C18.6912 25.1218 22.5503 28.9792 22.5503 33.7209H23.3003ZM13.9494 43.0718C19.1054 43.0718 23.2993 38.8785 23.3003 33.721L22.5503 33.7209C22.5494 38.4643 18.6911 42.3218 13.9494 42.3218V43.0718ZM6.63019 33.7218C6.63019 29.6859 9.91404 26.4027 13.9494 26.4027V25.6527C9.49987 25.6527 5.88019 29.2716 5.88019 33.7218H6.63019ZM13.9494 41.0419C9.91431 41.0419 6.63019 37.7581 6.63019 33.7218H5.88019C5.88019 38.1722 9.50005 41.7919 13.9494 41.7919V41.0419ZM21.2694 33.7218C21.2694 37.7578 17.9856 41.0419 13.9494 41.0419V41.7919C18.3998 41.7919 22.0194 38.172 22.0194 33.7218H21.2694ZM13.9494 26.4027C17.9854 26.4027 21.2694 29.6866 21.2694 33.7218H22.0194C22.0194 29.2723 18.3995 25.6527 13.9494 25.6527V26.4027ZM7.83593 33.7232C7.83593 37.0937 10.5788 39.8365 13.9493 39.8365V39.0865C10.993 39.0865 8.58593 36.6795 8.58593 33.7232H7.83593ZM13.9493 27.6107C10.5788 27.6107 7.83593 30.3525 7.83593 33.7232H8.58593C8.58593 30.7669 10.9929 28.3607 13.9493 28.3607V27.6107ZM20.0627 33.7232C20.0627 30.3525 17.3198 27.6107 13.9493 27.6107V28.3607C16.9057 28.3607 19.3127 30.7669 19.3127 33.7232H20.0627ZM13.9493 39.8365C17.3199 39.8365 20.0627 37.0937 20.0627 33.7232H19.3127C19.3127 36.6795 16.9057 39.0865 13.9493 39.0865V39.8365ZM9.86586 33.7222C9.86586 31.4725 11.6975 29.6406 13.9493 29.6406V28.8906C11.2835 28.8906 9.11586 31.0581 9.11586 33.7222H9.86586ZM13.9493 37.8057C11.6978 37.8057 9.86586 35.9722 9.86586 33.7222H9.11586C9.11586 36.3862 11.2833 38.5557 13.9493 38.5557V37.8057ZM18.0328 33.7222C18.0328 35.9739 16.201 37.8057 13.9493 37.8057V38.5557C16.6152 38.5557 18.7828 36.3881 18.7828 33.7222H18.0328ZM13.9493 29.6406C16.2003 29.6406 18.0328 31.4717 18.0328 33.7222H18.7828C18.7828 31.0571 16.6141 28.8906 13.9493 28.8906V29.6406ZM83.3025 42.3218C78.5608 42.3218 74.7034 38.4628 74.7034 33.7209H73.9534C73.9534 38.8768 78.1464 43.0718 83.3025 43.0718V42.3218ZM91.9034 33.7209C91.9034 38.4643 88.0461 42.3218 83.3025 42.3218V43.0718C88.4603 43.0718 92.6534 38.8785 92.6534 33.7209H91.9034ZM83.3025 25.1218C88.0443 25.1218 91.9034 28.9792 91.9034 33.7209H92.6534C92.6534 28.5648 88.4584 24.3718 83.3025 24.3718V25.1218ZM74.7034 33.7209C74.7034 28.9792 78.5624 25.1218 83.3025 25.1218V24.3718C78.1483 24.3718 73.9534 28.5649 73.9534 33.7209H74.7034ZM83.3025 25.6527C78.853 25.6527 75.2333 29.2716 75.2333 33.7218H75.9833C75.9833 29.6859 79.2671 26.4027 83.3025 26.4027V25.6527ZM91.3725 33.7218C91.3725 29.2723 87.7526 25.6527 83.3025 25.6527V26.4027C87.3385 26.4027 90.6225 29.6866 90.6225 33.7218H91.3725ZM83.3025 41.7919C87.7529 41.7919 91.3725 38.172 91.3725 33.7218H90.6225C90.6225 37.7578 87.3387 41.0419 83.3025 41.0419V41.7919ZM75.2333 33.7218C75.2333 38.1722 78.8532 41.7919 83.3025 41.7919V41.0419C79.2674 41.0419 75.9833 37.7581 75.9833 33.7218H75.2333ZM77.1891 33.7232C77.1891 37.0937 79.9319 39.8365 83.3025 39.8365V39.0865C80.3462 39.0865 77.9391 36.6795 77.9391 33.7232H77.1891ZM83.3025 27.6107C79.932 27.6107 77.1891 30.3525 77.1891 33.7232H77.9391C77.9391 30.7669 80.3461 28.3607 83.3025 28.3607V27.6107ZM89.4159 33.7232C89.4159 30.3525 86.673 27.6107 83.3025 27.6107V28.3607C86.2589 28.3607 88.6659 30.7669 88.6659 33.7232H89.4159ZM83.3025 39.8365C86.6739 39.8365 89.4168 37.0938 89.4159 33.7231L88.6659 33.7233C88.6667 36.6795 86.2598 39.0865 83.3025 39.0865V39.8365ZM79.219 33.7222C79.219 31.4725 81.0507 29.6406 83.3025 29.6406V28.8906C80.6367 28.8906 78.469 31.0581 78.469 33.7222H79.219ZM83.3025 37.8057C81.0509 37.8057 79.219 35.9722 79.219 33.7222H78.469C78.469 36.3862 80.6365 38.5557 83.3025 38.5557V37.8057ZM87.386 33.7222C87.386 35.9739 85.5542 37.8057 83.3025 37.8057V38.5557C85.9684 38.5557 88.136 36.3881 88.136 33.7222H87.386ZM83.3025 29.6406C85.5543 29.6406 87.386 31.4716 87.386 33.7222H88.136C88.136 31.0571 85.9682 28.8906 83.3025 28.8906V29.6406ZM48.8283 18.6989C48.8123 18.6989 48.8064 18.6988 48.8006 18.6985L48.7612 19.4475C48.7894 19.449 48.8139 19.4489 48.8283 19.4489V18.6989ZM49.0919 18.4549C49.0821 18.5914 48.9661 18.6989 48.8283 18.6989L48.8283 19.4489C49.3532 19.4489 49.8016 19.0437 49.84 18.5086L49.0919 18.4549ZM48.8472 18.1707C48.9932 18.1815 49.1027 18.3078 49.092 18.4544L49.84 18.5091C49.881 17.9484 49.46 17.4638 48.9023 17.4227L48.8472 18.1707ZM45.5842 17.9341L48.8476 18.1707L48.9019 17.4227L45.6385 17.186L45.5842 17.9341ZM45.3003 18.1787C45.3115 18.0268 45.4441 17.9212 45.577 17.9335L45.6458 17.1866C45.0802 17.1345 44.593 17.5684 44.5523 18.1239L45.3003 18.1787ZM45.5451 18.4623C45.3991 18.4516 45.2896 18.3252 45.3003 18.1787L44.5523 18.1239C44.5113 18.6847 44.9323 19.1692 45.4901 19.2103L45.5451 18.4623ZM48.8081 18.699L45.5447 18.4623L45.4905 19.2103L48.7538 19.447L48.8081 18.699ZM18.3317 17.1678C18.3598 17.1693 18.3844 17.1692 18.3987 17.1692V16.4192C18.3827 16.4192 18.3769 16.4192 18.3711 16.4189L18.3317 17.1678ZM15.061 16.9316L18.3244 17.1674L18.3784 16.4193L15.1151 16.1835L15.061 16.9316ZM14.1228 15.8452C14.0817 16.406 14.5027 16.8905 15.0605 16.9316L15.1156 16.1836C14.9695 16.1728 14.8601 16.0465 14.8708 15.8999L14.1228 15.8452ZM15.2063 14.9071C14.6673 14.8719 14.1644 15.2776 14.1228 15.8452L14.8708 15.8999C14.881 15.7601 15.0123 15.646 15.1574 15.6555L15.2063 14.9071ZM18.4722 15.1431L15.2088 14.9073L15.1548 15.6553L18.4182 15.8911L18.4722 15.1431ZM19.4104 16.2295C19.4515 15.6687 19.0305 15.1841 18.4727 15.1431L18.4177 15.8911C18.5637 15.9018 18.6732 16.0282 18.6624 16.1747L19.4104 16.2295ZM18.3987 17.1692C18.9269 17.1692 19.3721 16.7608 19.4105 16.2291L18.6624 16.1751C18.6526 16.3114 18.5368 16.4192 18.3987 16.4192L18.3987 17.1692Z" fill="#5538EE"/>
</svg>
