<svg width="55" height="55" viewBox="0 0 55 55" fill="none" xmlns="http://www.w3.org/2000/svg">
<path fill-rule="evenodd" clip-rule="evenodd" d="M41.7058 13.7554H53.3753L53.3733 13.7544C53.7191 13.7544 53.9903 14.0466 53.9913 14.389C53.9913 14.7304 53.7123 15.0147 53.3753 15.0147H41.081C40.7449 15.0147 40.465 14.7313 40.465 14.389V13.4209C39.848 13.5202 39.2572 13.78 38.7554 14.1637L37.506 15.1318C36.6275 15.8077 35.5339 16.1835 34.4326 16.1835H33.8651C33.3875 16.1835 32.9197 16.1166 32.4674 15.9828L29.7796 15.2065C29.4425 15.1062 29.0812 15.056 28.7277 15.056H23.7472C22.7283 15.056 21.8333 14.5542 21.2657 13.7869L12.1765 19.2717C11.7736 19.5137 11.33 19.6308 10.8941 19.6308C10.2451 19.6308 9.59619 19.3642 9.11093 18.8634C8.63439 18.3715 8.37965 17.7114 8.39611 17.0187C8.41355 16.3183 8.70025 15.6748 9.20198 15.2075L23.6261 2.93618C24.5463 2.07631 25.7628 1.59227 27.0365 1.59227H35.8952C36.9887 1.59227 38.0658 1.96022 38.9366 2.61939L40.4737 3.78818V1.6267C40.4737 1.28531 40.7527 1.00098 41.0897 1.00098H53.384C53.7201 1.00098 54 1.28531 54 1.6267C54 1.96809 53.7211 2.25242 53.384 2.25242H41.7058V13.7554ZM38.0154 13.1611C38.7225 12.6023 39.5855 12.2521 40.4727 12.1429H40.4718V5.35641L38.1956 3.6288C37.5379 3.12803 36.7156 2.85256 35.8942 2.85256H27.0356C26.0747 2.85256 25.1536 3.22051 24.4388 3.87968L10.0156 16.1313C9.78506 16.3566 9.63784 16.6823 9.62912 17.0325C9.62041 17.3916 9.74342 17.7251 9.99041 17.976C10.4011 18.402 11.0423 18.4935 11.5518 18.1846L20.7475 12.6505C20.6981 12.4174 20.6652 12.1675 20.6652 11.9166C20.6652 10.189 22.0541 8.77817 23.755 8.77817H28.5872C28.9233 8.77817 29.2033 9.0625 29.2033 9.40389C29.2033 9.74528 28.9243 10.0296 28.5872 10.0296H23.755C22.7273 10.0296 21.8972 10.8728 21.8972 11.9166C21.8972 12.9604 22.7283 13.8036 23.755 13.8036H28.7354C29.2129 13.8036 29.6808 13.8705 30.1331 14.0043L32.8209 14.7805C33.158 14.8809 33.5193 14.9311 33.8728 14.9311H34.4404C35.2705 14.9311 36.1006 14.6477 36.766 14.1302L38.0154 13.1611ZM42.8138 35.744L33.7246 41.2279C33.157 40.4605 32.262 39.9588 31.2431 39.9588H26.2636C25.9101 39.9588 25.5488 39.9086 25.2117 39.8082L22.5239 39.032C22.0716 38.8982 21.6037 38.8313 21.1262 38.8313H20.5586C19.4574 38.8313 18.3638 39.2071 17.4853 39.883L16.2358 40.8511C15.7341 41.2348 15.1433 41.4945 14.5263 41.5939V40.6258C14.5263 40.2834 14.2464 40.0001 13.9103 40.0001H1.61602C1.27895 40.0001 1 40.2844 1 40.6258C1 40.9672 1.27992 41.2515 1.61602 41.2515H13.2942V52.7466H1.61602C1.27895 52.7466 1 53.0309 1 53.3723C1 53.7137 1.27992 53.998 1.61602 53.998H13.9103C14.2473 53.998 14.5263 53.7137 14.5263 53.3723V51.2099L16.0634 52.3786C16.9342 53.0378 18.0113 53.4058 19.1048 53.4058H27.9644C29.2381 53.4058 30.4547 52.9217 31.3748 52.0707L45.798 39.7994C46.2998 39.3321 46.5864 38.6886 46.6116 37.9881C46.6358 37.2867 46.3734 36.6354 45.8968 36.1435C45.0755 35.3082 43.8095 35.1419 42.8148 35.743L42.8138 35.744ZM44.9757 38.8657L30.5525 51.1282C29.8377 51.7874 28.9166 52.1553 27.9557 52.1553H19.0961C18.2747 52.1553 17.4524 51.8798 16.7947 51.3791L14.5185 49.6515V42.865C15.4058 42.7568 16.261 42.4055 16.9758 41.8467L18.2253 40.8786C18.8907 40.3611 19.7131 40.0778 20.5509 40.0778H21.1185C21.472 40.0778 21.8333 40.128 22.1704 40.2283L24.8582 41.0046C25.3105 41.1384 25.7783 41.2053 26.2559 41.2053H31.2363C32.263 41.2053 33.0941 42.0484 33.0941 43.0923C33.0941 44.1361 32.264 44.9792 31.2363 44.9792H26.404C26.067 44.9792 25.788 45.2636 25.788 45.605C25.788 45.9464 26.0679 46.2307 26.404 46.2307H31.2363C32.9372 46.2307 34.3261 44.8199 34.3261 43.0923C34.3261 42.8414 34.2932 42.5915 34.2438 42.3583L43.4395 36.8066C43.949 36.4976 44.5902 36.5891 45.0009 37.0151C45.2479 37.266 45.3709 37.5995 45.3622 37.9498C45.3534 38.3167 45.214 38.6424 44.9757 38.8687V38.8657ZM28.3005 37.6792C28.4323 37.6792 28.5553 37.6369 28.6618 37.5621L28.6878 37.5428L28.6878 37.5428C29.4307 36.9917 40.0117 29.142 40.0117 24.1476C40.0117 20.3913 36.9955 17.3277 33.2975 17.3277C31.5802 17.3277 29.7553 18.3794 28.3005 20.1828C26.8457 18.3794 25.0209 17.3277 23.3036 17.3277C19.6055 17.3277 16.5894 20.3913 16.5894 24.1476C16.5894 29.1424 27.1712 36.993 27.9124 37.543L27.9125 37.543L27.9383 37.5621C28.0448 37.6369 28.1688 37.6792 28.2996 37.6792H28.3005ZM17.8224 24.1476C17.8224 21.0761 20.2797 18.5801 23.3036 18.5801C25.5556 18.5801 27.3135 20.8754 27.7988 21.5857C27.9141 21.7529 28.1029 21.8523 28.3005 21.8523C28.4981 21.8523 28.687 21.752 28.8023 21.5857C29.2875 20.8842 31.0455 18.5801 33.2975 18.5801C36.3214 18.5801 38.7787 21.0761 38.7787 24.1476C38.7787 27.6874 31.5298 33.856 28.3005 36.2773C25.0713 33.857 17.8224 27.6874 17.8224 24.1476ZM19.8768 24.1397C19.8768 22.2281 21.4129 20.6668 23.3036 20.6668V20.6678C23.6397 20.6678 23.9196 20.9511 23.9196 21.2935C23.9196 21.6437 23.6407 21.9192 23.3036 21.9192C22.0948 21.9192 21.1088 22.9129 21.1088 24.1397C21.1088 24.4811 20.8289 24.7654 20.4928 24.7654C20.1567 24.7654 19.8768 24.4821 19.8768 24.1397Z" fill="#5538EE"/>
<path d="M53.3753 13.7554V14.1304L53.5447 13.4208L53.3753 13.7554ZM41.7058 13.7554H41.3308V14.1304H41.7058V13.7554ZM53.3733 13.7544V13.3794L53.2039 14.0889L53.3733 13.7544ZM53.9913 14.389L54.3663 14.389L54.3663 14.3879L53.9913 14.389ZM40.465 13.4209H40.84V12.9806L40.4054 13.0506L40.465 13.4209ZM38.7554 14.1637L38.5276 13.8658L38.5258 13.8672L38.7554 14.1637ZM37.506 15.1318L37.7346 15.429L37.7356 15.4282L37.506 15.1318ZM32.4674 15.9828L32.5738 15.6232L32.5714 15.6225L32.4674 15.9828ZM29.7796 15.2065L29.6726 15.566L29.6755 15.5668L29.7796 15.2065ZM21.2657 13.7869L21.5672 13.5639L21.3642 13.2894L21.072 13.4658L21.2657 13.7869ZM12.1765 19.2717L12.3696 19.5932L12.3703 19.5928L12.1765 19.2717ZM9.11093 18.8634L8.84159 19.1244L8.84163 19.1244L9.11093 18.8634ZM8.39611 17.0187L8.02123 17.0094L8.02122 17.0098L8.39611 17.0187ZM9.20198 15.2075L8.95898 14.9219L8.95256 14.9274L8.94639 14.9331L9.20198 15.2075ZM23.6261 2.93618L23.8691 3.2218L23.8758 3.21614L23.8822 3.21017L23.6261 2.93618ZM38.9366 2.61939L39.1635 2.32088L39.1629 2.32039L38.9366 2.61939ZM40.4737 3.78818L40.2467 4.08669L40.8487 4.54441V3.78818H40.4737ZM41.7058 2.25242V1.87742H41.3308V2.25242H41.7058ZM40.4727 12.1429L40.5186 12.5151L40.4727 11.7679V12.1429ZM38.0154 13.1611L38.2453 13.4575L38.248 13.4554L38.0154 13.1611ZM40.4718 12.1429H40.0968V12.5179H40.4718V12.1429ZM40.4718 5.35641H40.8468V5.17025L40.6985 5.0577L40.4718 5.35641ZM38.1956 3.6288L37.9684 3.92715L37.9689 3.9275L38.1956 3.6288ZM24.4388 3.87968L24.6816 4.16548L24.6874 4.16053L24.693 4.15535L24.4388 3.87968ZM10.0156 16.1313L9.77281 15.8455L9.76284 15.854L9.75348 15.8631L10.0156 16.1313ZM9.62912 17.0325L9.25424 17.0232L9.25423 17.0234L9.62912 17.0325ZM9.99041 17.976L10.2604 17.7157L10.2576 17.7129L9.99041 17.976ZM11.5518 18.1846L11.3584 17.8633L11.3573 17.8639L11.5518 18.1846ZM20.7475 12.6505L20.9409 12.9718L21.1697 12.8341L21.1144 12.5728L20.7475 12.6505ZM30.1331 14.0043L30.0267 14.3639L30.029 14.3646L30.1331 14.0043ZM32.8209 14.7805L32.9279 14.4211L32.925 14.4203L32.8209 14.7805ZM36.766 14.1302L36.5361 13.8339L36.5358 13.8342L36.766 14.1302ZM33.7246 41.2279L33.4231 41.4509L33.6261 41.7253L33.9183 41.549L33.7246 41.2279ZM42.8138 35.744L43.0075 36.0651L43.0476 36.0409L43.0805 36.0076L42.8138 35.744ZM25.2117 39.8082L25.3187 39.4488L25.3158 39.448L25.2117 39.8082ZM22.5239 39.032L22.4175 39.3916L22.4198 39.3923L22.5239 39.032ZM17.4853 39.883L17.2566 39.5858L17.2556 39.5866L17.4853 39.883ZM16.2358 40.8511L16.4636 41.149L16.4655 41.1475L16.2358 40.8511ZM14.5263 41.5939H14.1513V42.0341L14.5859 41.9641L14.5263 41.5939ZM13.2942 41.2515H13.6692V40.8765H13.2942V41.2515ZM13.2942 52.7466V53.1216H13.6692V52.7466H13.2942ZM14.5263 51.2099L14.7533 50.9113L14.1513 50.4536V51.2099H14.5263ZM16.0634 52.3786L15.8365 52.6772L15.8371 52.6776L16.0634 52.3786ZM31.3748 52.0707L31.1318 51.7851L31.1259 51.7901L31.1202 51.7954L31.3748 52.0707ZM45.798 39.7994L46.041 40.085L46.0474 40.0795L46.0536 40.0738L45.798 39.7994ZM46.6116 37.9881L46.9864 38.0016L46.9864 38.0011L46.6116 37.9881ZM45.8968 36.1435L46.1662 35.8825L46.1642 35.8805L45.8968 36.1435ZM42.8148 35.743L42.6208 35.4221L42.5809 35.4462L42.5481 35.4794L42.8148 35.743ZM30.5525 51.1282L30.3096 50.8425L30.3038 50.8474L30.2983 50.8525L30.5525 51.1282ZM44.9757 38.8657H45.3507V38.0547L44.7328 38.58L44.9757 38.8657ZM16.7947 51.3791L17.0219 51.0807L17.0214 51.0804L16.7947 51.3791ZM14.5185 49.6515H14.1435V49.8376L14.2918 49.9502L14.5185 49.6515ZM14.5185 42.865L14.4731 42.4928L14.1435 42.533V42.865H14.5185ZM16.9758 41.8467L16.7462 41.5503L16.7449 41.5513L16.9758 41.8467ZM18.2253 40.8786L18.455 41.1751L18.4555 41.1747L18.2253 40.8786ZM22.1704 40.2283L22.0634 40.5877L22.0663 40.5886L22.1704 40.2283ZM24.8582 41.0046L24.9646 40.645L24.9622 40.6443L24.8582 41.0046ZM34.2438 42.3583L34.05 42.0373L33.8216 42.1751L33.8769 42.436L34.2438 42.3583ZM43.4395 36.8066L43.6333 37.1276L43.634 37.1272L43.4395 36.8066ZM45.0009 37.0151L44.7309 37.2754L44.7337 37.2782L45.0009 37.0151ZM45.3622 37.9498L44.9873 37.9404L44.9873 37.9409L45.3622 37.9498ZM44.9757 38.8687H44.6007V39.742L45.2339 39.1406L44.9757 38.8687ZM28.6618 37.5621L28.8773 37.8692L28.8853 37.8632L28.6618 37.5621ZM28.6878 37.5428L28.4798 37.2308L28.4719 37.2361L28.4643 37.2417L28.6878 37.5428ZM28.6878 37.5428L28.8959 37.8548L28.9037 37.8496L28.9113 37.844L28.6878 37.5428ZM28.3005 20.1828L28.0087 20.4182L28.3005 20.78L28.5924 20.4182L28.3005 20.1828ZM27.9124 37.543L27.689 37.8441L27.6966 37.8497L27.7044 37.855L27.9124 37.543ZM27.9125 37.543L28.136 37.2419L28.1284 37.2362L28.1205 37.231L27.9125 37.543ZM27.9383 37.5621L27.7147 37.8634L27.7229 37.8691L27.9383 37.5621ZM27.7988 21.5857L27.4892 21.7972L27.49 21.7985L27.7988 21.5857ZM28.8023 21.5857L29.1105 21.7993L29.1107 21.799L28.8023 21.5857ZM28.3005 36.2773L28.0756 36.5773L28.3006 36.7459L28.5255 36.5773L28.3005 36.2773ZM23.3036 20.6668H23.6786V20.2918H23.3036V20.6668ZM23.3036 20.6678H22.9286V21.0428H23.3036V20.6678ZM53.3753 13.3804H41.7058V14.1304H53.3753V13.3804ZM53.2039 14.0889L53.2059 14.0899L53.5447 13.4208L53.5427 13.4198L53.2039 14.0889ZM54.3663 14.3879C54.3648 13.8546 53.9412 13.3794 53.3733 13.3794V14.1294C53.497 14.1294 53.6159 14.2386 53.6163 14.39L54.3663 14.3879ZM53.3753 15.3897C53.9253 15.3897 54.3663 14.9315 54.3663 14.389H53.6163C53.6163 14.5292 53.4993 14.6397 53.3753 14.6397V15.3897ZM41.081 15.3897H53.3753V14.6397H41.081V15.3897ZM40.09 14.389C40.09 14.9333 40.5327 15.3897 41.081 15.3897V14.6397C40.9571 14.6397 40.84 14.5294 40.84 14.389H40.09ZM40.09 13.4209V14.389H40.84V13.4209H40.09ZM38.9832 14.4615C39.4377 14.114 39.9712 13.8802 40.5246 13.7911L40.4054 13.0506C39.7248 13.1602 39.0766 13.4459 38.5276 13.8658L38.9832 14.4615ZM37.7356 15.4282L38.9851 14.4601L38.5258 13.8672L37.2763 14.8353L37.7356 15.4282ZM34.4326 16.5585C35.6178 16.5585 36.7915 16.1546 37.7346 15.429L37.2773 14.8345C36.4634 15.4607 35.4501 15.8085 34.4326 15.8085V16.5585ZM33.8651 16.5585H34.4326V15.8085H33.8651V16.5585ZM32.361 16.3424C32.8485 16.4866 33.3522 16.5585 33.8651 16.5585V15.8085C33.4229 15.8085 32.9909 15.7466 32.5738 15.6232L32.361 16.3424ZM29.6755 15.5668L32.3633 16.343L32.5714 15.6225L29.8836 14.8463L29.6755 15.5668ZM28.7277 15.431C29.0468 15.431 29.3719 15.4764 29.6726 15.5659L29.8866 14.8471C29.513 14.7359 29.1156 14.681 28.7277 14.681V15.431ZM23.7472 15.431H28.7277V14.681H23.7472V15.431ZM20.9642 14.0099C21.5971 14.8655 22.6005 15.431 23.7472 15.431V14.681C22.856 14.681 22.0695 14.243 21.5672 13.5639L20.9642 14.0099ZM12.3703 19.5928L21.4595 14.1079L21.072 13.4658L11.9828 18.9507L12.3703 19.5928ZM10.8941 20.0058C11.3973 20.0058 11.9078 19.8706 12.3696 19.5932L11.9834 18.9503C11.6394 19.1569 11.2626 19.2558 10.8941 19.2558V20.0058ZM8.84163 19.1244C9.39698 19.6975 10.1429 20.0058 10.8941 20.0058V19.2558C10.3474 19.2558 9.7954 19.0309 9.38023 18.6025L8.84163 19.1244ZM8.02122 17.0098C8.00241 17.801 8.29379 18.5589 8.84159 19.1244L9.38027 18.6025C8.97498 18.1841 8.75688 17.6218 8.77101 17.0277L8.02122 17.0098ZM8.94639 14.9331C8.36925 15.4707 8.04112 16.2104 8.02123 17.0094L8.771 17.0281C8.78598 16.4262 9.03125 15.879 9.45757 15.4819L8.94639 14.9331ZM23.3832 2.65056L8.95898 14.9219L9.44497 15.4931L23.8691 3.2218L23.3832 2.65056ZM27.0365 1.21727C25.6675 1.21727 24.3595 1.73759 23.3701 2.66219L23.8822 3.21017C24.7331 2.41503 25.8582 1.96727 27.0365 1.96727V1.21727ZM35.8952 1.21727H27.0365V1.96727H35.8952V1.21727ZM39.1629 2.32039C38.2281 1.61275 37.0718 1.21727 35.8952 1.21727V1.96727C36.9057 1.96727 37.9035 2.30769 38.7102 2.91838L39.1629 2.32039ZM40.7007 3.48967L39.1635 2.32088L38.7096 2.91789L40.2467 4.08669L40.7007 3.48967ZM40.0987 1.6267V3.78818H40.8487V1.6267H40.0987ZM41.0897 0.625984C40.5397 0.625984 40.0987 1.08414 40.0987 1.6267H40.8487C40.8487 1.48649 40.9657 1.37598 41.0897 1.37598V0.625984ZM53.384 0.625984H41.0897V1.37598H53.384V0.625984ZM54.375 1.6267C54.375 1.08375 53.9327 0.625984 53.384 0.625984V1.37598C53.5075 1.37598 53.625 1.48687 53.625 1.6267H54.375ZM53.384 2.62742C53.934 2.62742 54.375 2.16927 54.375 1.6267H53.625C53.625 1.76691 53.5081 1.87742 53.384 1.87742V2.62742ZM41.7058 2.62742H53.384V1.87742H41.7058V2.62742ZM42.0808 13.7554V2.25242H41.3308V13.7554H42.0808ZM40.4269 11.7707C39.4739 11.888 38.5458 12.264 37.7829 12.8669L38.248 13.4554C38.8992 12.9406 39.6971 12.6162 40.5186 12.5151L40.4269 11.7707ZM40.4718 12.5179H40.4727V11.7679H40.4718V12.5179ZM40.0968 5.35641V12.1429H40.8468V5.35641H40.0968ZM37.9689 3.9275L40.2451 5.65511L40.6985 5.0577L38.4223 3.33009L37.9689 3.9275ZM35.8942 3.22756C36.6339 3.22756 37.3763 3.4763 37.9684 3.92715L38.4228 3.33044C37.6995 2.77975 36.7973 2.47756 35.8942 2.47756V3.22756ZM27.0356 3.22756H35.8942V2.47756H27.0356V3.22756ZM24.693 4.15535C25.3406 3.55819 26.1716 3.22756 27.0356 3.22756V2.47756C25.9778 2.47756 24.9666 2.88283 24.1846 3.604L24.693 4.15535ZM10.2584 16.4171L24.6816 4.16548L24.196 3.59387L9.77281 15.8455L10.2584 16.4171ZM10.004 17.0419C10.0103 16.789 10.1173 16.5563 10.2777 16.3995L9.75348 15.8631C9.45286 16.1569 9.26538 16.5756 9.25424 17.0232L10.004 17.0419ZM10.2576 17.7129C10.0872 17.5398 9.99757 17.307 10.004 17.0416L9.25423 17.0234C9.24324 17.4763 9.3996 17.9104 9.72318 18.2391L10.2576 17.7129ZM11.3573 17.8639C11.0011 18.08 10.5521 18.0184 10.2604 17.7158L9.72043 18.2363C10.2501 18.7857 11.0835 18.9071 11.7462 18.5052L11.3573 17.8639ZM20.5541 12.3292L11.3584 17.8633L11.7451 18.5059L20.9409 12.9718L20.5541 12.3292ZM20.2902 11.9166C20.2902 12.1994 20.3272 12.4759 20.3807 12.7283L21.1144 12.5728C21.069 12.3588 21.0402 12.1356 21.0402 11.9166H20.2902ZM23.755 8.40317C21.8415 8.40317 20.2902 9.98742 20.2902 11.9166H21.0402C21.0402 10.3906 22.2667 9.15317 23.755 9.15317V8.40317ZM28.5872 8.40317H23.755V9.15317H28.5872V8.40317ZM29.5783 9.40389C29.5783 8.86094 29.1359 8.40317 28.5872 8.40317V9.15317C28.7107 9.15317 28.8283 9.26406 28.8283 9.40389H29.5783ZM28.5872 10.4046C29.1373 10.4046 29.5783 9.94646 29.5783 9.40389H28.8283C28.8283 9.5441 28.7113 9.65461 28.5872 9.65461V10.4046ZM23.755 10.4046H28.5872V9.65461H23.755V10.4046ZM22.2722 11.9166C22.2722 11.0743 22.9399 10.4046 23.755 10.4046V9.65461C22.5147 9.65461 21.5222 10.6712 21.5222 11.9166H22.2722ZM23.755 13.4286C22.9407 13.4286 22.2722 12.7588 22.2722 11.9166H21.5222C21.5222 13.1621 22.5158 14.1786 23.755 14.1786V13.4286ZM28.7354 13.4286H23.755V14.1786H28.7354V13.4286ZM30.2395 13.6447C29.752 13.5005 29.2483 13.4286 28.7354 13.4286V14.1786C29.1776 14.1786 29.6096 14.2405 30.0267 14.3639L30.2395 13.6447ZM32.925 14.4203L30.2371 13.644L30.029 14.3646L32.7169 15.1408L32.925 14.4203ZM33.8728 14.5561C33.5537 14.5561 33.2285 14.5106 32.9279 14.4211L32.7139 15.1399C33.0874 15.2511 33.4849 15.3061 33.8728 15.3061V14.5561ZM34.4404 14.5561H33.8728V15.3061H34.4404V14.5561ZM36.5358 13.8342C35.936 14.3006 35.1869 14.5561 34.4404 14.5561V15.3061C35.3541 15.3061 36.2651 14.9948 36.9962 14.4262L36.5358 13.8342ZM37.7856 12.8648L36.5361 13.8339L36.9958 14.4265L38.2453 13.4575L37.7856 12.8648ZM33.9183 41.549L43.0075 36.0651L42.6201 35.4229L33.5309 40.9068L33.9183 41.549ZM31.2431 40.3338C32.1343 40.3338 32.9208 40.7718 33.4231 41.4509L34.0261 41.0049C33.3932 40.1493 32.3898 39.5838 31.2431 39.5838V40.3338ZM26.2636 40.3338H31.2431V39.5838H26.2636V40.3338ZM25.1047 40.1676C25.4782 40.2788 25.8757 40.3338 26.2636 40.3338V39.5838C25.9445 39.5838 25.6193 39.5383 25.3187 39.4488L25.1047 40.1676ZM22.4198 39.3923L25.1077 40.1685L25.3158 39.448L22.6279 38.6717L22.4198 39.3923ZM21.1262 39.2063C21.5684 39.2063 22.0004 39.2682 22.4175 39.3916L22.6303 38.6724C22.1428 38.5282 21.6391 38.4563 21.1262 38.4563V39.2063ZM20.5586 39.2063H21.1262V38.4563H20.5586V39.2063ZM17.714 40.1802C18.5278 39.5541 19.5412 39.2063 20.5586 39.2063V38.4563C19.3735 38.4563 18.1998 38.8602 17.2566 39.5858L17.714 40.1802ZM16.4655 41.1475L17.715 40.1794L17.2556 39.5866L16.0062 40.5547L16.4655 41.1475ZM14.5859 41.9641C15.2665 41.8545 15.9146 41.5688 16.4636 41.149L16.008 40.5532C15.5536 40.9008 15.0201 41.1345 14.4667 41.2237L14.5859 41.9641ZM14.1513 40.6258V41.5939H14.9013V40.6258H14.1513ZM13.9103 40.3751C14.0341 40.3751 14.1513 40.4854 14.1513 40.6258H14.9013C14.9013 40.0815 14.4586 39.6251 13.9103 39.6251V40.3751ZM1.61602 40.3751H13.9103V39.6251H1.61602V40.3751ZM1.375 40.6258C1.375 40.4856 1.49194 40.3751 1.61602 40.3751V39.6251C1.06597 39.6251 0.625 40.0832 0.625 40.6258H1.375ZM1.61602 40.8765C1.49253 40.8765 1.375 40.7656 1.375 40.6258H0.625C0.625 41.1687 1.06731 41.6265 1.61602 41.6265V40.8765ZM13.2942 40.8765H1.61602V41.6265H13.2942V40.8765ZM13.6692 52.7466V41.2515H12.9192V52.7466H13.6692ZM1.61602 53.1216H13.2942V52.3716H1.61602V53.1216ZM1.375 53.3723C1.375 53.2321 1.49194 53.1216 1.61602 53.1216V52.3716C1.06596 52.3716 0.625 52.8298 0.625 53.3723H1.375ZM1.61602 53.623C1.49253 53.623 1.375 53.5121 1.375 53.3723H0.625C0.625 53.9153 1.06731 54.373 1.61602 54.373V53.623ZM13.9103 53.623H1.61602V54.373H13.9103V53.623ZM14.1513 53.3723C14.1513 53.5125 14.0343 53.623 13.9103 53.623V54.373C14.4603 54.373 14.9013 53.9149 14.9013 53.3723H14.1513ZM14.1513 51.2099V53.3723H14.9013V51.2099H14.1513ZM16.2904 52.0801L14.7533 50.9113L14.2993 51.5084L15.8365 52.6772L16.2904 52.0801ZM19.1048 53.0308C18.0943 53.0308 17.0965 52.6903 16.2898 52.0797L15.8371 52.6776C16.7719 53.3853 17.9282 53.7808 19.1048 53.7808V53.0308ZM27.9644 53.0308H19.1048V53.7808H27.9644V53.0308ZM31.1202 51.7954C30.2688 52.5828 29.143 53.0308 27.9644 53.0308V53.7808C29.3333 53.7808 30.6405 53.2606 31.6294 52.346L31.1202 51.7954ZM45.555 39.5138L31.1318 51.7851L31.6178 52.3563L46.041 40.085L45.555 39.5138ZM46.2369 37.9747C46.2151 38.5796 45.9687 39.128 45.5424 39.525L46.0536 40.0738C46.6308 39.5361 46.9578 38.7976 46.9864 38.0016L46.2369 37.9747ZM45.6275 36.4044C46.0353 36.8254 46.2575 37.3786 46.2369 37.9752L46.9864 38.0011C47.0142 37.1947 46.7114 36.4454 46.1662 35.8825L45.6275 36.4044ZM43.0087 36.064C43.8524 35.5542 44.9278 35.6929 45.6294 36.4064L46.1642 35.8805C45.2231 34.9235 43.7667 34.7297 42.6208 35.4221L43.0087 36.064ZM43.0805 36.0076L43.0815 36.0066L42.5481 35.4794L42.5471 35.4804L43.0805 36.0076ZM30.7954 51.4139L45.2186 39.1514L44.7328 38.58L30.3096 50.8425L30.7954 51.4139ZM27.9557 52.5303C29.0135 52.5303 30.0247 52.125 30.8067 51.4039L30.2983 50.8525C29.6507 51.4497 28.8196 51.7803 27.9557 51.7803V52.5303ZM19.0961 52.5303H27.9557V51.7803H19.0961V52.5303ZM16.5675 51.6774C17.2908 52.2281 18.193 52.5303 19.0961 52.5303V51.7803C18.3565 51.7803 17.614 51.5316 17.0219 51.0807L16.5675 51.6774ZM14.2918 49.9502L16.568 51.6778L17.0214 51.0804L14.7453 49.3528L14.2918 49.9502ZM14.1435 42.865V49.6515H14.8935V42.865H14.1435ZM16.7449 41.5513C16.084 42.068 15.2929 42.3928 14.4731 42.4928L14.5639 43.2372C15.5186 43.1208 16.4381 42.7431 17.2068 42.1422L16.7449 41.5513ZM17.9956 40.5822L16.7462 41.5503L17.2055 42.1432L18.455 41.1751L17.9956 40.5822ZM20.5509 39.7028C19.629 39.7028 18.7258 40.0143 17.9951 40.5826L18.4555 41.1747C19.0556 40.708 19.7971 40.4528 20.5509 40.4528V39.7028ZM21.1185 39.7028H20.5509V40.4528H21.1185V39.7028ZM22.2774 39.8689C21.9038 39.7577 21.5064 39.7028 21.1185 39.7028V40.4528C21.4376 40.4528 21.7627 40.4982 22.0634 40.5877L22.2774 39.8689ZM24.9622 40.6443L22.2744 39.868L22.0663 40.5886L24.7541 41.3648L24.9622 40.6443ZM26.2559 40.8303C25.8137 40.8303 25.3817 40.7684 24.9646 40.645L24.7518 41.3642C25.2393 41.5084 25.743 41.5803 26.2559 41.5803V40.8303ZM31.2363 40.8303H26.2559V41.5803H31.2363V40.8303ZM33.4691 43.0923C33.4691 41.8467 32.4755 40.8303 31.2363 40.8303V41.5803C32.0505 41.5803 32.7191 42.2501 32.7191 43.0923H33.4691ZM31.2363 45.3542C32.4766 45.3542 33.4691 44.3377 33.4691 43.0923H32.7191C32.7191 43.9345 32.0514 44.6042 31.2363 44.6042V45.3542ZM26.404 45.3542H31.2363V44.6042H26.404V45.3542ZM26.163 45.605C26.163 45.4648 26.28 45.3542 26.404 45.3542V44.6042C25.854 44.6042 25.413 45.0624 25.413 45.605H26.163ZM26.404 45.8557C26.2806 45.8557 26.163 45.7448 26.163 45.605H25.413C25.413 46.1479 25.8553 46.6057 26.404 46.6057V45.8557ZM31.2363 45.8557H26.404V46.6057H31.2363V45.8557ZM33.9511 43.0923C33.9511 44.6183 32.7245 45.8557 31.2363 45.8557V46.6057C33.1498 46.6057 34.7011 45.0214 34.7011 43.0923H33.9511ZM33.8769 42.436C33.9222 42.65 33.9511 42.8733 33.9511 43.0923H34.7011C34.7011 42.8095 34.6641 42.5329 34.6106 42.2806L33.8769 42.436ZM43.2457 36.4855L34.05 42.0373L34.4376 42.6794L43.6333 37.1276L43.2457 36.4855ZM45.2709 36.7549C44.7412 36.2055 43.9078 36.0841 43.2451 36.4859L43.634 37.1272C43.9902 36.9112 44.4392 36.9728 44.7309 37.2754L45.2709 36.7549ZM45.737 37.9591C45.7481 37.5136 45.5908 37.0798 45.2681 36.752L44.7337 37.2782C44.905 37.4522 44.9936 37.6855 44.9873 37.9404L45.737 37.9591ZM45.2339 39.1406C45.5513 38.8392 45.7262 38.4156 45.7371 37.9587L44.9873 37.9409C44.9807 38.2179 44.8766 38.4456 44.7175 38.5967L45.2339 39.1406ZM44.6007 38.8657V38.8687H45.3507V38.8657H44.6007ZM28.4464 37.2552C28.3977 37.2893 28.349 37.3042 28.3005 37.3042V38.0542C28.5155 38.0542 28.7128 37.9845 28.8772 37.8691L28.4464 37.2552ZM28.4643 37.2417L28.4383 37.261L28.8853 37.8632L28.9113 37.8439L28.4643 37.2417ZM28.4798 37.2308L28.4798 37.2308L28.8958 37.8549L28.8959 37.8548L28.4798 37.2308ZM39.6367 24.1476C39.6367 25.2781 39.0308 26.626 38.0387 28.0564C37.0546 29.4752 35.7278 30.9227 34.3673 32.2422C31.6475 34.8801 28.8327 36.9684 28.4644 37.2416L28.9113 37.844C29.2859 37.5661 32.133 35.454 34.8894 32.7806C36.267 31.4445 37.6319 29.9588 38.6549 28.4838C39.6699 27.0205 40.3867 25.5143 40.3867 24.1476H39.6367ZM33.2975 17.7027C36.7829 17.7027 39.6367 20.5929 39.6367 24.1476H40.3867C40.3867 20.1898 37.2081 16.9527 33.2975 16.9527V17.7027ZM28.5924 20.4182C30.0038 18.6687 31.7314 17.7027 33.2975 17.7027V16.9527C31.4289 16.9527 29.5069 18.0901 28.0087 19.9473L28.5924 20.4182ZM23.3036 17.7027C24.8697 17.7027 26.5973 18.6687 28.0087 20.4182L28.5924 19.9473C27.0942 18.0901 25.1721 16.9527 23.3036 16.9527V17.7027ZM16.9644 24.1476C16.9644 20.5929 19.8182 17.7027 23.3036 17.7027V16.9527C19.3929 16.9527 16.2144 20.1898 16.2144 24.1476H16.9644ZM28.1359 37.2418C27.7684 36.9692 24.9538 34.8809 22.234 32.2429C20.8735 30.9233 19.5467 29.4756 18.5625 28.0567C17.5703 26.6262 16.9644 25.2782 16.9644 24.1476H16.2144C16.2144 25.5144 16.9312 27.0207 17.9462 28.4842C18.9693 29.9592 20.3342 31.4451 21.7118 32.7813C24.4683 35.4548 27.3152 37.5668 27.689 37.8441L28.1359 37.2418ZM28.1205 37.231L28.1205 37.2309L27.7044 37.855L27.7045 37.855L28.1205 37.231ZM28.1618 37.261L28.136 37.2419L27.689 37.8441L27.7148 37.8632L28.1618 37.261ZM28.2996 37.3042C28.2518 37.3042 28.2021 37.2892 28.1537 37.2552L27.7229 37.8691C27.8875 37.9847 28.0859 38.0542 28.2996 38.0542V37.3042ZM28.3005 37.3042H28.2996V38.0542H28.3005V37.3042ZM23.3036 18.2051C20.0671 18.2051 17.4474 20.8745 17.4474 24.1476H18.1974C18.1974 21.2776 20.4923 18.9551 23.3036 18.9551V18.2051ZM28.1085 21.3742C27.8557 21.0042 27.2732 20.223 26.4562 19.5305C25.6437 18.8417 24.557 18.2051 23.3036 18.2051V18.9551C24.3021 18.9551 25.2205 19.4661 25.9712 20.1026C26.7175 20.7352 27.2566 21.4568 27.4892 21.7972L28.1085 21.3742ZM28.3005 21.4773C28.2283 21.4773 28.154 21.4403 28.1076 21.3729L27.49 21.7985C27.6741 22.0656 27.9776 22.2273 28.3005 22.2273V21.4773ZM28.4941 21.3721C28.4469 21.4401 28.3717 21.4773 28.3005 21.4773V22.2273C28.6245 22.2273 28.9271 22.0638 29.1105 21.7993L28.4941 21.3721ZM33.2975 18.2051C32.0436 18.2051 30.9568 18.8443 30.1446 19.534C29.3278 20.2276 28.7455 21.0086 28.4939 21.3724L29.1107 21.799C29.3443 21.4613 29.8836 20.7395 30.6301 20.1057C31.3812 19.4679 32.2994 18.9551 33.2975 18.9551V18.2051ZM39.1537 24.1476C39.1537 20.8745 36.534 18.2051 33.2975 18.2051V18.9551C36.1088 18.9551 38.4037 21.2776 38.4037 24.1476H39.1537ZM28.5255 36.5773C30.1505 35.3589 32.7863 33.1984 35.0199 30.8928C36.1363 29.7405 37.1611 28.5428 37.9092 27.4013C38.6498 26.2713 39.1537 25.1453 39.1537 24.1476H38.4037C38.4037 24.9198 38.0015 25.8923 37.2819 26.9902C36.57 28.0765 35.5807 29.2361 34.4812 30.371C32.2831 32.6399 29.6798 34.7744 28.0756 35.9772L28.5255 36.5773ZM17.4474 24.1476C17.4474 25.1453 17.9513 26.2714 18.6918 27.4014C19.4399 28.543 20.4647 29.7408 21.5811 30.8932C23.8148 33.1989 26.4506 35.3594 28.0756 36.5773L28.5254 35.9772C26.9212 34.7749 24.318 32.6404 22.1198 30.3714C21.0203 29.2364 20.0311 28.0768 19.3191 26.9903C18.5996 25.8923 18.1974 24.9198 18.1974 24.1476H17.4474ZM23.3036 20.2918C21.2008 20.2918 19.5018 22.0261 19.5018 24.1397H20.2518C20.2518 22.4302 21.6251 21.0418 23.3036 21.0418V20.2918ZM23.6786 20.6678V20.6668H22.9286V20.6678H23.6786ZM24.2946 21.2935C24.2946 20.7492 23.8519 20.2928 23.3036 20.2928V21.0428C23.4275 21.0428 23.5446 21.1531 23.5446 21.2935H24.2946ZM23.3036 22.2942C23.8502 22.2942 24.2946 21.8484 24.2946 21.2935H23.5446C23.5446 21.4391 23.4311 21.5442 23.3036 21.5442V22.2942ZM21.4838 24.1397C21.4838 23.1163 22.3056 22.2942 23.3036 22.2942V21.5442C21.884 21.5442 20.7338 22.7095 20.7338 24.1397H21.4838ZM20.4928 25.1404C21.0415 25.1404 21.4838 24.6827 21.4838 24.1397H20.7338C20.7338 24.2795 20.6163 24.3904 20.4928 24.3904V25.1404ZM19.5018 24.1397C19.5018 24.684 19.9444 25.1404 20.4928 25.1404V24.3904C20.3689 24.3904 20.2518 24.2801 20.2518 24.1397H19.5018Z" fill="#5538EE"/>
</svg>
