<?xml version="1.0" encoding="utf-8"?>
<!-- Generator: Adobe Illustrator 27.0.0, SVG Export Plug-In . SVG Version: 6.00 Build 0)  -->
<svg version="1.1" id="Capa_1" xmlns="http://www.w3.org/2000/svg" xmlns:xlink="http://www.w3.org/1999/xlink" x="0px" y="0px"
	 viewBox="0 0 24 24" style="enable-background:new 0 0 24 24;" xml:space="preserve">
<style type="text/css">
	.st0{fill:none;stroke:#5538EE;stroke-width:1.5;stroke-linecap:round;stroke-linejoin:round;}
	.st1{fill:none;stroke:#979C9E;stroke-width:1.5;stroke-linecap:round;stroke-linejoin:round;}
</style>
<path class="st1" d="M21.2,15.9c-0.6,1.5-1.6,2.8-2.9,3.9c-1.3,1-2.8,1.7-4.4,2.1c-1.6,0.3-3.3,0.2-4.8-0.2c-1.6-0.5-3-1.3-4.2-2.5
	c-1.2-1.1-2-2.6-2.5-4.1c-0.5-1.6-0.6-3.2-0.3-4.8c0.3-1.6,1-3.1,2-4.4c1-1.3,2.3-2.3,3.8-2.9 M22,12c0-1.3-0.3-2.6-0.8-3.8
	C20.7,7,20,5.9,19.1,4.9c-0.9-0.9-2-1.7-3.2-2.2S13.3,2,12,2v10H22z"/>
</svg>
