<svg width="60" height="60" viewBox="0 0 60 60" fill="none" xmlns="http://www.w3.org/2000/svg">
<rect width="60" height="60" rx="30" fill="#E7E7FF"/>
<path d="M41.25 29.375C41.2543 31.0249 40.8688 32.6524 40.125 34.125C39.243 35.8897 37.8872 37.374 36.2093 38.4116C34.5314 39.4493 32.5978 39.9993 30.625 40C28.9752 40.0043 27.3476 39.6189 25.875 38.875L18.75 41.25L21.125 34.125C20.3812 32.6524 19.9957 31.0249 20 29.375C20.0008 27.4022 20.5508 25.4686 21.5884 23.7907C22.626 22.1128 24.1103 20.757 25.875 19.875C27.3476 19.1312 28.9752 18.7457 30.625 18.75H31.25C33.8554 18.8938 36.3163 19.9935 38.1614 21.8386C40.0065 23.6837 41.1063 26.1446 41.25 28.75V29.375Z" stroke="#5538EE" stroke-width="1.5" stroke-linecap="round" stroke-linejoin="round"/>
</svg>
