<svg width="76" height="76" viewBox="0 0 76 76" fill="none" xmlns="http://www.w3.org/2000/svg">
<rect width="76" height="76" rx="38" fill="#23C520" fill-opacity="0.2"/>
<path d="M54.6666 36.4671V38.0004C54.6645 41.5945 53.5008 45.0916 51.3488 47.9701C49.1969 50.8487 46.1721 52.9546 42.7255 53.9736C39.279 54.9926 35.5954 54.8703 32.224 53.6247C28.8527 52.3792 25.9743 50.0773 24.0182 47.0622C22.062 44.0472 21.1329 40.4805 21.3694 36.8943C21.6059 33.308 22.9953 29.8943 25.3304 27.1622C27.6655 24.4301 30.8212 22.5261 34.3269 21.734C37.8326 20.9419 41.5004 21.3043 44.7833 22.7671M54.6666 24.6671L37.9999 41.3504L32.9999 36.3504" stroke="#23C520" stroke-width="1.5" stroke-linecap="round" stroke-linejoin="round"/>
</svg>
