<svg width="54" height="55" viewBox="0 0 54 55" fill="none" xmlns="http://www.w3.org/2000/svg">
<g clip-path="url(#clip0_487_12266)">
<path d="M2.96898 20.3406C4.86666 18.4417 7.44029 17.3742 10.1248 17.3713H14.681C15.0648 17.3713 15.4215 17.567 15.6279 17.8901C16.1534 18.7012 16.7628 19.4534 17.4465 20.1342L25.8742 17.6548V16.1658C23.2668 15.7839 21.0211 14.1251 19.888 11.745H3.37494C2.1696 11.745 1.05491 11.1018 0.45224 10.0573C-0.150428 9.0129 -0.150428 7.72641 0.45224 6.68197C1.05491 5.63754 2.1696 4.99429 3.37494 4.99429H19.8948C20.7472 3.19185 22.2524 1.78191 24.1057 1.04898C25.9591 0.317007 28.0216 0.317007 29.8759 1.04898C31.7293 1.78191 33.2345 3.19185 34.0869 4.99429H50.6251C51.8304 4.99429 52.9451 5.63754 53.5478 6.68197C54.1504 7.72641 54.1504 9.0129 53.5478 10.0573C52.9451 11.1018 51.8304 11.745 50.6251 11.745H25.8752C25.2542 11.745 24.7508 11.2406 24.7508 10.6196C24.7508 9.99851 25.2542 9.49413 25.8752 9.49413H50.6251C51.246 9.49413 51.7504 8.99072 51.7504 8.36966C51.7504 7.74859 51.246 7.24421 50.6251 7.24421H25.8752C25.2542 7.24421 24.7508 6.7408 24.7508 6.11877C24.7508 5.49674 25.2542 4.99429 25.8752 4.99429H31.5007C30.3311 3.43391 28.4372 2.592 26.4952 2.76656C24.5532 2.94111 22.8416 4.10995 21.9689 5.85356C21.0972 7.59718 21.1908 9.66869 22.2148 11.3274C23.2398 12.9852 25.0498 13.9949 26.9995 13.9949C27.6205 13.9949 28.1248 14.4983 28.1248 15.1204V17.6538L36.5477 20.1294C37.2333 19.4486 37.8446 18.6963 38.3711 17.8872C38.5785 17.5651 38.9352 17.3703 39.318 17.3703H43.8742C46.5587 17.3732 49.1324 18.4408 51.0301 20.3397C52.9297 22.2385 53.9971 24.8125 54 27.4973V36.498C54 37.3939 53.6442 38.2522 53.0116 38.8849C52.3781 39.5175 51.5199 39.8733 50.6251 39.8733H42.7499V53.3748C42.7499 53.6728 42.6313 53.9592 42.4211 54.1704C42.2099 54.3816 41.9235 54.5002 41.6255 54.5002H12.3754C12.0775 54.5002 11.7911 54.3816 11.5799 54.1704C11.3687 53.9592 11.2511 53.6728 11.2511 53.3748V39.8733H3.3759C2.48106 39.8733 1.62286 39.5175 0.989338 38.8849C0.356778 38.2522 0.000962853 37.3939 0.000962853 36.498V27.4973C0.00385566 24.8125 1.0713 22.2385 2.96994 20.3406H2.96898ZM3.3759 7.24518C2.75491 7.24518 2.2506 7.74859 2.2506 8.37062C2.2506 8.99265 2.75491 9.4951 3.3759 9.4951H19.214C19.1571 9.12284 19.1272 8.74673 19.1253 8.37062C19.1292 7.99354 19.1591 7.6184 19.215 7.24518H3.3759ZM2.2506 36.498C2.2506 36.796 2.36921 37.0824 2.58038 37.2936C2.79156 37.5048 3.07794 37.6234 3.3759 37.6234H11.2511V31.9981C11.2511 31.3761 11.7544 30.8727 12.3754 30.8727C12.9964 30.8727 13.5007 31.3761 13.5007 31.9981V52.2503H40.5002V31.9981C40.5002 31.3761 41.0036 30.8727 41.6255 30.8727C42.2475 30.8727 42.7499 31.3761 42.7499 31.9981V37.6234H50.6251C51.246 37.6234 51.7504 37.12 51.7504 36.498V27.4973C51.7475 25.4094 50.9172 23.4074 49.4409 21.9309C47.9646 20.4544 45.9628 19.6241 43.8752 19.6212H39.9198C39.2563 20.5644 38.4926 21.4313 37.6421 22.2096L37.6286 22.2241L37.6103 22.2395C37.3529 22.4758 37.0829 22.6899 36.81 22.9146C36.6393 23.0515 36.4725 23.1894 36.2912 23.3186C36.0386 23.5048 35.7811 23.6832 35.5179 23.8529C35.2932 24.0005 35.0589 24.1355 34.8246 24.2705C34.5902 24.4055 34.3521 24.5492 34.1071 24.6736C33.6433 24.9089 33.1708 25.124 32.6877 25.3101C32.5151 25.3767 32.3377 25.4229 32.1641 25.4866C31.7948 25.6149 31.4236 25.7344 31.0466 25.8357C30.8431 25.8887 30.6396 25.935 30.4333 25.9794C30.0534 26.0652 29.6686 26.1356 29.28 26.1906C29.0968 26.2176 28.9146 26.2475 28.7294 26.2678C28.1557 26.3343 27.5781 26.369 26.9995 26.3709C24.9167 26.3748 22.8551 25.963 20.9333 25.1597C20.3596 24.9186 20.0915 24.258 20.3326 23.6851C20.5736 23.1113 21.2332 22.8422 21.8069 23.0833C23.451 23.7719 25.2166 24.1239 26.9995 24.121C27.5164 24.1172 28.0313 24.0853 28.5443 24.0246C28.634 24.014 28.7256 24.0063 28.8143 23.9937C29.2858 23.9291 29.7544 23.8404 30.2163 23.7266C30.3291 23.6986 30.4487 23.6668 30.5654 23.635C31.0109 23.5154 31.4496 23.3727 31.8806 23.2077C31.9935 23.1653 32.0957 23.1142 32.2037 23.0698C32.5412 22.9281 32.8787 22.7709 33.1988 22.6031C33.3348 22.5327 33.4736 22.4671 33.6067 22.3909C33.895 22.2289 34.1689 22.0447 34.4456 21.8605L26.9995 19.6684L17.4513 22.4816C17.0039 22.6118 16.5218 22.4507 16.2431 22.0775C16.191 22.0505 16.1419 22.0187 16.0946 21.983C15.3473 21.2635 14.6733 20.4727 14.0802 19.6212H10.1248C8.03718 19.6241 6.03536 20.4544 4.55906 21.9309C3.08277 23.4074 2.25253 25.4094 2.24964 27.4973V36.498H2.2506Z" fill="#5538EE"/>
</g>
<defs>
<clipPath id="clip0_487_12266">
<rect width="54" height="54" fill="white" transform="matrix(-1 0 0 1 54 0.5)"/>
</clipPath>
</defs>
</svg>
