<svg width="53" height="53" viewBox="0 0 53 53" fill="none" xmlns="http://www.w3.org/2000/svg">
<g clip-path="url(#clip0_180_10491)">
<path d="M12.9852 32.3271C10.7693 32.3271 8.97119 34.1386 8.97119 36.3335V44.2974C8.97119 44.7486 9.32748 45.1076 9.76964 45.1076H16.1931C16.6353 45.1076 17.0031 44.7486 17.0031 44.2974V36.3335C17.0018 34.1386 15.1909 32.3271 12.9852 32.3271V32.3271ZM12.9852 33.9245C14.3078 33.9245 15.3947 34.9989 15.3947 36.3347V37.7898H10.5668V36.3347C10.5668 34.9989 11.6523 33.9245 12.9852 33.9245ZM10.5655 43.5089V39.4103H15.3934V43.5089H10.5655Z" fill="#5538EE"/>
<path d="M21.6734 20.885H31.3138C31.7559 20.885 32.1122 20.5503 32.1122 20.0965V13.7326C32.1122 10.6326 29.5977 8.10449 26.5 8.10449C23.4023 8.10449 20.875 10.6314 20.875 13.7326V20.0965C20.875 20.5503 21.2313 20.885 21.6734 20.885V20.885ZM22.4821 19.2863V14.5428H30.514V19.2863H22.4821ZM26.5 9.72497C28.4404 9.72497 30.0629 11.1095 30.432 12.921H22.5655C22.9358 11.1108 24.5558 9.72497 26.5 9.72497V9.72497Z" fill="#5538EE"/>
<path d="M40.0146 32.3271C37.7962 32.3271 35.998 34.1386 35.998 36.3335V44.2974C35.998 44.7486 36.3569 45.1076 36.808 45.1076H43.22C43.6737 45.1076 44.0299 44.7486 44.0299 44.2974V36.3335C44.0287 34.1386 42.2293 32.3271 40.0134 32.3271H40.0146ZM40.0146 33.9245C41.3488 33.9245 42.4202 34.9989 42.4202 36.3347V37.7898H37.6052V36.3347C37.6052 34.9989 38.692 33.9245 40.0146 33.9245ZM37.6052 43.5089V39.4103H42.4202V43.5089H37.6052Z" fill="#5538EE"/>
<path d="M29.0019 43.5088C28.5597 43.5088 28.1919 43.8678 28.1919 44.2972C28.1919 44.7485 28.561 45.1075 29.0019 45.1075C29.4428 45.1075 29.8003 44.7485 29.8003 44.2972C29.8003 43.8665 29.4428 43.5088 29.0019 43.5088Z" fill="#5538EE"/>
<path d="M52.1922 51.4029H48.9754V25.7946H52.1922C52.5267 25.7946 52.8241 25.6048 52.9445 25.2946C53.0612 24.9843 52.9907 24.6279 52.742 24.4125L27.0469 0.214418C26.7368 -0.0714726 26.2613 -0.0714726 25.9511 0.214418L0.258541 24.4125C0.00734439 24.6279 -0.0644262 24.983 0.0560459 25.2946C0.172673 25.6048 0.473853 25.7946 0.805792 25.7946H4.01368V51.4029H0.805792C0.366197 51.4029 0.0073444 51.7593 0.0073444 52.2132C0.0073444 52.6414 0.366197 52.999 0.805792 52.999H52.1922C52.6344 52.999 52.9907 52.6401 52.9907 52.2132C52.9907 51.758 52.6331 51.4029 52.1922 51.4029ZM26.5009 1.90668L50.1673 24.1985H2.83203L26.5009 1.90668ZM22.0794 51.4029V38.3609C22.0794 35.9046 24.0684 33.9251 26.5009 33.9251C28.9334 33.9251 30.9212 35.9059 30.9212 38.3609V51.4029H22.0794V51.4029ZM32.5168 51.4029V38.3609C32.5168 35.0225 29.8255 32.3277 26.4997 32.3277C23.1739 32.3277 20.4812 35.0225 20.4812 38.3609V51.4029H5.62083V25.7946H47.3772V51.4029H32.5168V51.4029Z" fill="#5538EE"/>
</g>
<defs>
<clipPath id="clip0_180_10491">
<rect width="53" height="53" fill="white"/>
</clipPath>
</defs>
</svg>
