<svg width="42" height="64" viewBox="0 0 42 64" fill="none" xmlns="http://www.w3.org/2000/svg">
<g clip-path="url(#clip0_180_10524)">
<path d="M4.55563 0.5H37.443C39.9564 0.5 42 2.72877 42 5.4651V28.2578C42 30.998 39.9564 33.2255 37.443 33.2255H28.8228V37.3162H33.352C34.0349 37.3162 34.5868 37.8658 34.5868 38.543C34.5868 39.2202 34.0336 39.7698 33.352 39.7698H8.64803C7.96508 39.7698 7.41317 39.2202 7.41317 38.543C7.41317 37.8658 7.96508 37.3162 8.64803 37.3162H13.1772V33.2255H4.55696C2.04488 33.2255 0 30.9967 0 28.2578V5.4651C0 2.72746 2.04355 0.5 4.55696 0.5H4.55563ZM37.443 2.95494H4.55563C3.40548 2.95494 2.47105 4.08182 2.47105 5.4651V23.4084H39.5303V5.4651C39.5303 4.0805 38.5945 2.95494 37.4444 2.95494H37.443ZM15.6469 37.3175H26.3531V33.2268H15.6469V37.3175ZM4.55696 30.7719H37.4444C38.5945 30.7719 39.5303 29.645 39.5303 28.2591V25.8633H2.47105V28.2604C2.47105 29.645 3.4068 30.7719 4.55696 30.7719Z" fill="#5538EE"/>
<path d="M6.44552 45.4999H19.763V42.636C19.763 41.9588 20.3163 41.4092 20.9979 41.4092C21.6795 41.4092 22.2341 41.9588 22.2341 42.636V45.4999H35.5542C37.746 45.4999 39.5288 47.4262 39.5288 49.7957V59.2052C39.5288 61.5733 37.746 63.4997 35.5542 63.4997H6.44419C4.25373 63.4997 2.4696 61.5733 2.4696 59.2052V49.7957C2.4696 47.4262 4.25373 45.4999 6.44552 45.4999ZM4.93933 59.2052C4.93933 60.219 5.61433 61.0447 6.44552 61.0447H35.5542C36.3841 61.0447 37.0578 60.219 37.0578 59.2052V49.7957C37.0578 48.7819 36.3827 47.9548 35.5542 47.9548H6.44419C5.61433 47.9548 4.93933 48.7819 4.93933 49.7957V59.2052Z" fill="#5538EE"/>
<path d="M31.5598 50.4092H32.6729C33.2751 50.4092 33.7622 50.8944 33.7622 51.4927V52.5985C33.7622 53.1968 33.2738 53.682 32.6716 53.682H31.5585C30.9563 53.682 30.4692 53.1968 30.4692 52.5985V51.4927C30.4692 50.8944 30.9576 50.4092 31.5598 50.4092Z" fill="#5538EE"/>
<path d="M31.5598 55.3184H32.6729C33.2751 55.3184 33.7622 55.8036 33.7622 56.4018V57.5077C33.7622 58.106 33.2738 58.5899 32.6716 58.5899H31.5585C30.9563 58.5899 30.4692 58.1047 30.4692 57.5064V56.4005C30.4692 55.8022 30.9576 55.3184 31.5598 55.3184Z" fill="#5538EE"/>
<path d="M24.1482 50.4092H25.2613C25.8635 50.4092 26.3506 50.8944 26.3506 51.4927V52.5985C26.3506 53.1968 25.8622 53.682 25.26 53.682H24.1469C23.5447 53.682 23.0576 53.1968 23.0576 52.5985V51.4927C23.0576 50.8944 23.546 50.4092 24.1482 50.4092Z" fill="#5538EE"/>
<path d="M24.1482 55.3184H25.2613C25.8635 55.3184 26.3506 55.8036 26.3506 56.4018V57.5077C26.3506 58.106 25.8622 58.5899 25.26 58.5899H24.1469C23.5447 58.5899 23.0576 58.1047 23.0576 57.5064V56.4005C23.0576 55.8022 23.546 55.3184 24.1482 55.3184Z" fill="#5538EE"/>
<path d="M16.7361 50.4092H17.8492C18.4514 50.4092 18.9385 50.8944 18.9385 51.4927V52.5985C18.9385 53.1968 18.4501 53.682 17.8479 53.682H16.7348C16.1326 53.682 15.6455 53.1968 15.6455 52.5985V51.4927C15.6455 50.8944 16.1339 50.4092 16.7361 50.4092Z" fill="#5538EE"/>
<path d="M16.7361 55.3184H17.8492C18.4514 55.3184 18.9385 55.8036 18.9385 56.4018V57.5077C18.9385 58.106 18.4501 58.5899 17.8479 58.5899H16.7348C16.1326 58.5899 15.6455 58.1047 15.6455 57.5064V56.4005C15.6455 55.8022 16.1339 55.3184 16.7361 55.3184Z" fill="#5538EE"/>
<path d="M9.32448 50.4092H10.4376C11.0398 50.4092 11.5269 50.8944 11.5269 51.4927V52.5985C11.5269 53.1968 11.0385 53.682 10.4363 53.682H9.32316C8.72094 53.682 8.23388 53.1968 8.23388 52.5985V51.4927C8.23388 50.8944 8.72227 50.4092 9.32448 50.4092Z" fill="#5538EE"/>
<path d="M9.32448 55.3184H10.4376C11.0398 55.3184 11.5269 55.8036 11.5269 56.4018V57.5077C11.5269 58.106 11.0385 58.5899 10.4363 58.5899H9.32316C8.72094 58.5899 8.23388 58.1047 8.23388 57.5064V56.4005C8.23388 55.8022 8.72227 55.3184 9.32448 55.3184Z" fill="#5538EE"/>
</g>
<defs>
<clipPath id="clip0_180_10524">
<rect width="42" height="63" fill="white" transform="matrix(-1 0 0 1 42 0.5)"/>
</clipPath>
</defs>
</svg>
