<svg width="68" height="66" viewBox="0 0 68 66" fill="none" xmlns="http://www.w3.org/2000/svg">
<g clip-path="url(#clip0_180_10482)">
<path d="M14.0737 57.4629C13.5064 57.4629 13.0493 57.9571 13.0493 58.5145C13.0493 59.1002 13.5064 59.566 14.0737 59.566C14.641 59.566 15.1129 59.1002 15.1129 58.5145C15.1129 57.9288 14.6525 57.4629 14.0737 57.4629Z" fill="#5538EE"/>
<path d="M46.1177 57.4629C45.5504 57.4629 45.0933 57.9571 45.0933 58.5145C45.0933 59.1002 45.5504 59.566 46.1177 59.566C46.6849 59.566 47.1569 59.1002 47.1569 58.5145C47.1569 57.9554 46.6997 57.4629 46.1177 57.4629Z" fill="#5538EE"/>
<path d="M66.9576 9.5625C62.4012 9.5625 58.6884 13.3029 58.6884 17.9136V19.7705H56.3502C55.7829 19.7705 55.3258 20.2647 55.3258 20.8221C55.3258 21.4111 55.7829 21.8736 56.3502 21.8736H58.6884V46.1964H9.02728L2.37609 21.8753H5.35556C5.92284 21.8753 6.38325 21.4127 6.38325 20.8237C6.38325 20.2663 5.92284 19.7721 5.35556 19.7721H1.03434C0.71206 19.7721 0.40622 19.9269 0.223703 20.1748C0.0247429 20.4543 -0.0525391 20.7954 0.0395416 21.1033L7.25802 47.5292C7.37969 47.9635 7.77761 48.2696 8.25117 48.2696H58.6901V51.1781C58.6901 54.3329 56.3946 56.9352 53.4151 57.3978C52.8791 53.8088 49.824 51.055 46.1227 51.055C42.4214 51.055 39.3334 53.8404 38.8302 57.461H21.3858C20.881 53.8404 17.8078 51.055 14.0769 51.055C10.0106 51.055 6.70718 54.3978 6.70718 58.5126C6.70718 62.6274 10.0106 66.0001 14.0769 66.0001C17.8062 66.0001 20.881 63.1831 21.3858 59.5642H38.8302C39.335 63.1831 42.4082 66.0001 46.1227 66.0001C49.8371 66.0001 52.958 63.1548 53.4316 59.5026C57.5588 59.0084 60.7553 55.481 60.7553 51.1781V17.9152C60.7553 14.451 63.5391 11.6357 66.9609 11.6357C67.5282 11.6357 68.0001 11.1698 68.0001 10.5841C68.0001 10.0267 67.5249 9.56416 66.9592 9.56416L66.9576 9.5625ZM14.0753 63.8969C11.1534 63.8969 8.76748 61.4826 8.76748 58.5142C8.76748 55.5459 11.1534 53.1315 14.0753 53.1315C16.9972 53.1315 19.411 55.5425 19.411 58.5142C19.411 61.486 17.0104 63.8969 14.0753 63.8969ZM46.1194 63.8969C43.186 63.8969 40.8001 61.4826 40.8001 58.5142C40.8001 55.5459 43.186 53.1315 46.1194 53.1315C49.0528 53.1315 51.4387 55.5425 51.4387 58.5142C51.4387 61.4826 49.0578 63.8969 46.1194 63.8969Z" fill="#5538EE"/>
<path d="M7.89564 30.6658H15.3887V37.3813H9.91484C9.34756 37.3813 8.88715 37.8755 8.88715 38.4329C8.88715 39.0186 9.34756 39.4845 9.91484 39.4845H15.3887V42.8871C15.3887 43.4762 15.8458 43.9387 16.4131 43.9387C16.9804 43.9387 17.4523 43.4762 17.4523 42.8871V39.4845H29.8207V42.8871C29.8207 43.4762 30.2778 43.9387 30.8451 43.9387C31.4124 43.9387 31.8843 43.4762 31.8843 42.8871V39.4845H44.2527V42.8871C44.2527 43.4762 44.7132 43.9387 45.2919 43.9387C45.8707 43.9387 46.3196 43.4762 46.3196 42.8871V39.4845H55.2778C55.8566 39.4845 56.317 39.0186 56.317 38.4329C56.317 37.8472 55.8566 37.3813 55.2778 37.3813H46.3196V30.6658H55.2778C55.8566 30.6658 56.317 30.1999 56.317 29.6143C56.317 29.0286 55.8566 28.591 55.2778 28.591H46.3196V25.1567C46.3196 24.6009 45.8592 24.1367 45.2919 24.1367C44.7247 24.1367 44.2527 24.6026 44.2527 25.1567V28.591H31.8843V25.1567C31.8843 24.6009 31.4272 24.1367 30.8451 24.1367C30.263 24.1367 29.8207 24.6026 29.8207 25.1567V28.591H17.4523V25.1567C17.4523 24.6009 16.9771 24.1367 16.4131 24.1367C15.8491 24.1367 15.3887 24.6026 15.3887 25.1567V28.591H7.89564C7.32836 28.591 6.85645 29.0569 6.85645 29.6143C6.85645 30.2016 7.33 30.6658 7.89564 30.6658ZM44.2527 30.6658V37.3813H31.8843V30.6658H44.2527ZM29.8207 30.6658V37.3813H17.4523V30.6658H29.8207Z" fill="#5538EE"/>
<path d="M11.2747 21.8769H50.4304C50.9977 21.8769 51.4548 21.4143 51.4548 20.8253C51.4548 15.2546 49.3156 10.0266 45.4153 6.06656C41.441 2.07321 36.2434 0.0332779 31.0145 0H30.6922C25.4634 0.031614 20.2509 2.07321 16.2767 6.06489C12.3945 10.025 10.252 15.2546 10.252 20.8236C10.252 21.1032 10.3572 21.381 10.5594 21.5674C10.7403 21.7504 11.0149 21.8752 11.2764 21.8752L11.2747 21.8769ZM31.8844 13.6156C34.3771 13.4925 36.8534 12.9035 39.1933 11.8519C40.3114 14.3261 40.9806 17.02 41.1187 19.7737H31.8844V13.6173V13.6156ZM31.8844 11.5125V2.94176C34.5152 4.82695 36.6676 7.27288 38.2445 9.99501C36.2122 10.8952 34.0581 11.3894 31.8844 11.5125ZM34.6369 2.47587C37.7233 3.12479 40.6616 4.5807 43.1544 6.80699C42.1892 7.67554 41.1648 8.41764 40.096 9.06656C38.6901 6.59068 36.8386 4.36273 34.6369 2.47587ZM29.8208 2.94176V11.5125C27.6355 11.3894 25.4782 10.8952 23.4458 9.99501C25.0194 7.27288 27.1899 4.82695 29.8208 2.94176ZM21.6108 9.06489C20.5239 8.41597 19.4995 7.67388 18.5524 6.80532C21.0451 4.57737 23.9819 3.12479 27.0698 2.47255C24.8681 4.36106 23.0183 6.59068 21.6108 9.06323V9.06489ZM29.8208 13.6156V19.772H20.5716C20.7097 17.0183 21.3822 14.3245 22.5119 11.8502C24.8352 12.9018 27.3116 13.4908 29.8208 13.614V13.6156ZM43.184 19.772C43.0459 16.7088 42.2944 13.7072 41.0267 10.9235C42.2944 10.183 43.503 9.31281 44.6211 8.29284C47.4641 11.4809 49.1298 15.4742 49.3583 19.772H43.1856H43.184ZM17.0873 8.29284C18.2021 9.31281 19.4107 10.1814 20.6785 10.9235C19.3959 13.7088 18.6625 16.7088 18.508 19.772H12.3303C12.5753 15.4709 14.241 11.4792 17.0873 8.29284Z" fill="#5538EE"/>
</g>
<defs>
<clipPath id="clip0_180_10482">
<rect width="68" height="66" fill="white"/>
</clipPath>
</defs>
</svg>
