<svg width="57" height="57" viewBox="0 0 57 57" fill="none" xmlns="http://www.w3.org/2000/svg">
<g clip-path="url(#clip0_487_12276)">
<path d="M8.21225 16.9071C7.57925 16.9071 7.06611 16.3917 7.06611 15.7558C7.06611 15.12 7.57925 14.6045 8.21225 14.6045C8.84525 14.6045 9.3584 15.12 9.3584 15.7558C9.3584 16.3917 8.84525 16.9071 8.21225 16.9071Z" fill="#5538EE"/>
<path d="M36.6041 8.08152C36.5399 8.27375 36.3496 8.33714 36.1582 8.40156L31.193 10.1286L32.0847 14.0927V14.3483C32.0847 15.6909 31.6388 16.7778 30.8754 17.4812C30.8754 18.1847 30.8754 18.377 30.8113 18.8238C30.8113 18.9516 30.7471 19.1438 30.7471 19.3994C30.5558 21.1898 30.2382 22.789 29.6651 24.1949C28.9648 26.1775 27.5642 28.0957 25.7188 29.6304C24.8271 30.3973 23.8092 31.2286 22.1542 31.5486C21.8356 31.613 21.4539 31.613 21.1994 31.613C19.926 31.613 18.9081 31.1652 17.8251 30.4617C15.5338 28.9914 13.7515 26.881 12.7957 24.4505C11.904 22.1489 11.3951 19.655 11.3951 16.8412C10.8862 16.2021 10.6317 15.3708 10.6317 14.3473V14.0917L11.5234 10.1275L9.2952 9.36065V12.7502C9.2952 13.3893 8.78627 13.9015 8.14906 13.9015C7.51186 13.9015 7.00292 13.3903 7.00292 12.7502V8.52937L6.55708 8.40156C6.36571 8.33714 6.23848 8.27375 6.11124 8.14594C5.72954 7.76251 5.47507 7.25023 5.47507 6.67561C5.47507 6.10099 5.66644 5.58871 6.11124 5.20528C6.23848 5.07747 6.36571 4.94966 6.55708 4.94966L20.3077 0.216545C21.1353 -0.103498 21.7714 -0.0390739 22.4086 0.216545L36.1582 4.88524C36.3496 4.94966 36.4768 5.01305 36.6041 5.14086C36.9858 5.52428 37.2402 6.03656 37.2402 6.61119C37.2402 7.18581 37.0489 7.69809 36.6041 8.08152ZM14.8966 23.5558C15.7242 25.5384 17.1889 27.2654 19.0343 28.4801C20.1163 29.1836 20.8166 29.3759 21.7714 29.1836C22.7262 28.9914 23.2993 28.5446 24.1899 27.8411C25.7809 26.4986 26.8639 24.9638 27.5001 23.3646C27.9459 22.0855 28.2635 20.6786 28.4549 19.0804C28.4549 18.8248 28.519 18.697 28.519 18.5692L21.7714 20.9986C21.6442 21.063 21.517 21.063 21.3897 21.063C21.2625 21.063 21.1353 21.063 21.008 20.9986L13.8146 18.4403C13.9418 20.2951 14.2605 21.9577 14.8966 23.5558V23.5558ZM14.0691 16.0109L21.3897 18.6326L28.7735 16.0109C29.5369 15.7553 29.7924 15.3719 29.7924 14.4762L28.9648 10.8954L22.5359 13.0703V15.8841C22.5359 16.5232 22.0269 17.0355 21.3897 17.0355C20.7525 17.0355 20.2436 16.5242 20.2436 15.8841V13.0703L13.8146 10.8964L12.9871 14.4772C12.9871 15.1807 13.2415 15.6919 14.0691 16.012V16.0109ZM21.6432 2.39139C21.3887 2.26358 21.3246 2.32696 21.1342 2.39139L12.1585 5.4609H20.4339C21.0701 5.4609 21.5801 5.97214 21.5801 6.61223C21.5801 7.25231 21.0711 7.76355 20.4339 7.76355H12.0944L21.1332 10.8331C21.2604 10.8975 21.3246 10.8975 21.6421 10.8331L34.0552 6.61223L21.6421 2.39243L21.6432 2.39139Z" fill="#5538EE"/>
<path d="M1.20914 39.4784C2.35529 35.642 9.16595 33.5316 11.3941 32.9559L11.2669 32.5081C11.1396 32.0602 11.2669 31.6124 11.5855 31.2934L13.3678 29.6308C13.8136 29.183 14.5139 29.183 14.9587 29.6308L21.1332 35.5776L27.3077 29.6308C27.7536 29.183 28.4539 29.183 28.8987 29.6308L30.681 31.2934C30.9996 31.6134 31.1268 32.0602 30.9996 32.5081L28.8356 39.8618C28.7714 40.1819 28.517 40.4375 28.1994 40.5653C27.8808 40.6931 27.5632 40.6931 27.2446 40.6297L22.0249 38.5193V47.5356C22.0249 48.1746 21.516 48.6869 20.8788 48.6869C20.2416 48.6869 19.7326 48.1757 19.7326 47.5356V38.7115L15.0218 40.6297C14.8946 40.6941 14.7032 40.6941 14.576 40.6941C14.3846 40.6941 14.2574 40.6297 14.0671 40.5663C13.7485 40.4385 13.5581 40.1829 13.4309 39.8629L12.0303 35.1952C8.84735 36.0265 4.07347 37.9447 3.43627 40.1185C2.48149 43.2514 2.35425 47.5356 2.35425 47.6C2.35425 48.2391 1.84532 48.7513 1.20811 48.7513H1.14398C0.507807 48.7513 -0.00216704 48.1757 -0.00216704 47.5366C0.0619674 47.3444 0.189203 42.9324 1.20811 39.4794L1.20914 39.4784ZM26.9271 38.0081L28.518 32.5725L28.0722 32.1891L23.4255 36.6655L26.9271 38.0081ZM15.3415 38.0081L18.7789 36.6011L14.1322 32.1247L13.6864 32.5081L15.3415 38.0081Z" fill="#5538EE"/>
<path d="M7.32077 44.083H12.4774C13.1136 44.083 13.6235 44.5942 13.6235 45.2343C13.6235 45.8744 13.1146 46.3857 12.4774 46.3857H7.32077C6.6846 46.3857 6.17463 45.8744 6.17463 45.2343C6.11153 44.5942 6.6846 44.083 7.32077 44.083Z" fill="#5538EE"/>
<path d="M27.8189 52.7152C27.2458 52.7152 26.7369 52.4595 26.4183 52.0117C26.0366 51.436 25.9724 50.7325 26.2269 49.9657L32.8472 31.2307C33.2289 30.0793 34.3109 29.248 35.3299 29.248H55.256C55.8291 29.248 56.338 29.5037 56.6566 29.9515C57.0383 30.5272 57.1025 31.2307 56.848 31.9975L50.2277 50.6692C49.7818 51.8205 48.7639 52.6518 47.745 52.6518L27.8199 52.7152H27.8189ZM48.0616 49.9023L54.5547 31.6141H35.4571C35.393 31.6785 35.2026 31.8063 35.0754 32.0619L28.5823 50.3502H47.6799C47.743 50.3502 47.9343 50.1579 48.0616 49.9023V49.9023Z" fill="#5538EE"/>
<path d="M15.0242 54.6973H47.68C48.3162 54.6973 48.8262 55.2085 48.8262 55.8486C48.8262 56.4887 48.3172 56.9999 47.68 56.9999H15.0242C14.388 56.9999 13.8781 56.4887 13.8781 55.8486C13.8781 55.2085 14.387 54.6973 15.0232 54.6973H15.0242Z" fill="#5538EE"/>
<path d="M41.6313 44.6586H41.4399C40.6124 44.6586 39.849 44.3386 39.2759 43.6995C38.6397 42.996 38.3211 41.9725 38.3842 40.9501C38.5756 38.9674 40.1034 37.3693 41.9489 37.3049C42.8405 37.2405 43.6039 37.6249 44.2401 38.2006C44.8763 38.9041 45.1949 39.9276 45.1318 40.9501C44.9415 42.9316 43.4136 44.5308 41.6313 44.6586V44.6586ZM42.5861 39.8621C42.4588 39.7343 42.3316 39.6699 42.1402 39.6699H42.0761C41.503 39.6699 40.8668 40.3089 40.8027 41.2046C40.7386 41.5881 40.8668 41.9081 41.0572 42.1003C41.1844 42.2282 41.3758 42.2926 41.5661 42.2926C42.1392 42.2926 42.7754 41.6535 42.8395 40.7578C42.8395 40.3744 42.7764 40.0543 42.585 39.8621H42.5861Z" fill="#5538EE"/>
</g>
<defs>
<clipPath id="clip0_487_12276">
<rect width="57" height="57" fill="white" transform="matrix(-1 0 0 1 57 0)"/>
</clipPath>
</defs>
</svg>
