<svg width="114" height="114" viewBox="0 0 114 114" fill="none" xmlns="http://www.w3.org/2000/svg">
<g clip-path="url(#clip0_535_12856)">
<circle cx="57.0005" cy="57" r="39.5" stroke="#EDF3F4" stroke-width="11"/>
</g>
<mask id="path-2-inside-1_535_12856" fill="white">
<path d="M43.3737 14.3304C34.559 17.1685 26.8346 22.657 21.2542 30.047C15.6738 37.437 12.5091 46.3686 12.192 55.6235L23.6374 56.0157C23.8739 49.1162 26.2331 42.4575 30.3934 36.9482C34.5536 31.439 40.3122 27.3473 46.8836 25.2314L43.3737 14.3304Z"/>
</mask>
<path d="M43.3737 14.3304C34.559 17.1685 26.8346 22.657 21.2542 30.047C15.6738 37.437 12.5091 46.3686 12.192 55.6235L23.6374 56.0157C23.8739 49.1162 26.2331 42.4575 30.3934 36.9482C34.5536 31.439 40.3122 27.3473 46.8836 25.2314L43.3737 14.3304Z" stroke="#6200EE" stroke-width="22" mask="url(#path-2-inside-1_535_12856)"/>
<defs>
<clipPath id="clip0_535_12856">
<rect width="90" height="90" fill="white" transform="translate(12.0005 12)"/>
</clipPath>
</defs>
</svg>
