<svg width="300" height="196" viewBox="0 0 300 196" fill="none" xmlns="http://www.w3.org/2000/svg">
<g clip-path="url(#clip0_162_10375)">
<path d="M11.322 119.636C9.7069 151.82 31.2266 168.344 62.2638 172.27C97.0805 176.673 132.83 170.734 167.499 167.713C180.559 166.574 193.663 165.72 206.782 165.792C219.144 165.859 232.527 169.261 244.671 167.379C275.028 162.671 290.673 131.346 285.942 104.027C283.009 87.0869 271.993 70.8976 252.497 71.9745C238.799 72.7329 226.655 78.6764 213.569 81.8955C196.337 86.1354 178.023 85.4511 161.125 79.9361C152.684 77.1761 144.635 73.2611 136.421 69.8335C120.062 63.0152 102.761 58.0963 85.1437 57.8251C67.5316 57.5489 49.5238 62.1749 35.2828 72.9964C20.2644 84.4075 12.2224 101.672 11.3207 119.637L11.322 119.636Z" stroke="#F0F0F0" stroke-width="4.26" stroke-miterlimit="10"/>
<path d="M280.317 129.345C281.924 161.139 260.517 177.462 229.642 181.34C195.007 185.69 159.444 179.822 124.956 176.838C111.963 175.714 98.9288 174.87 85.8776 174.94C73.5809 175.007 60.2671 178.369 48.1868 176.508C17.9885 171.857 2.42577 140.913 7.13136 113.924C9.33046 101.315 14.1846 87.3659 25.0969 79.71C36.0732 72.0092 48.84 73.9789 60.8717 77.3221C82.7846 83.4113 106.661 94.8378 129.879 90.3664C143.186 87.8034 154.782 80.2791 167.42 75.7758C180.02 71.2866 193.482 68.4895 206.878 68.281C224.398 68.0086 242.311 72.5784 256.478 83.2681C271.418 94.541 279.418 111.596 280.316 129.343L280.317 129.345Z" fill="#F0F0F0"/>
<path d="M258.145 156.007C258.145 156.007 246.077 164.506 232.213 157.142L245.18 149.917L258.147 156.007H258.145Z" fill="#6F3428"/>
<path d="M169.29 99.2041C169.29 99.2041 157.548 121.195 161.224 127.691L174.594 120.279L169.29 99.2054V99.2041Z" fill="#6F3428"/>
<path d="M164.233 121.529C162.764 120.433 161.349 119.2 159.99 117.858C157.313 115.208 154.85 112.131 152.606 108.848V108.842C151.099 106.639 149.69 104.338 148.385 102.009C144.611 95.2891 141.662 88.3353 139.564 82.7666C137.374 76.9575 136.101 72.6499 135.763 71.6625C135.724 71.5474 135.698 71.477 135.681 71.4553L142.032 53.2439C145.102 48.3352 146.822 64.2662 146.822 64.2662C147.669 63.7699 148.696 62.3131 149.302 61.5279C149.985 60.639 150.509 62.0458 150.602 62.5472C151.132 65.4761 148.772 71.0447 148.772 71.0447L163.917 93.2095C164.846 94.5678 165.883 95.8493 167.009 97.0324C167.73 97.7959 168.495 98.5211 169.291 99.2028C170.635 104.902 170.498 115.892 164.233 121.526V121.529Z" fill="#F9B384"/>
<path opacity="0.6" d="M164.233 121.528C162.764 120.432 161.349 119.199 159.99 117.858C164.743 112.42 168.379 103.389 169.291 99.2051C170.012 99.9686 168.493 98.5234 169.291 99.2051C170.635 104.904 170.498 115.895 164.233 121.528Z" fill="#E28B6D"/>
<path d="M258.148 156.009C249.874 154.4 243.352 154.503 237.846 155.594C235.847 155.992 233.985 156.517 232.215 157.143L230.548 163.105L227.261 174.89L225.125 182.548L223.181 189.501L222.089 193.423H163.397L172.681 132.97L161.222 127.691C161.96 126.605 162.636 125.33 163.265 123.917C166.744 116.09 168.612 104.228 169.29 99.2041C172.567 102.018 176.428 104.123 180.639 105.324C185.636 106.748 191.66 107.98 197.297 107.849C197.494 107.844 197.685 107.837 197.876 107.832C210.913 107.324 216.729 111.279 216.729 111.279C219.678 111.862 227.368 114.813 234.081 117.763C237.041 119.056 239.81 120.355 241.908 121.444C247.544 124.383 251.635 129.609 253.153 135.778L258.145 156.006L258.148 156.009Z" fill="#EE6F57"/>
<path opacity="0.6" d="M237.846 155.594C235.847 155.992 233.985 156.516 232.215 157.143L235.748 144.483L237.845 155.593L237.846 155.594Z" fill="#AE5140"/>
<path opacity="0.3" d="M152.606 108.843C151.099 106.639 149.918 104.649 147.085 99.6278C151.529 98.1083 154.186 104.649 152.606 108.843Z" fill="#EE6F57"/>
<path opacity="0.6" d="M231.187 160.823L227.262 174.89L225.127 182.547L172.46 186.556L166.473 176.095C204.979 175.303 221.09 169.823 231.187 160.821V160.823Z" fill="#AE5140"/>
<path opacity="0.6" d="M139.563 82.7678C137.373 76.9587 136.1 72.6511 135.761 71.6637L145.616 65.5693C145.992 71.1163 141.599 79.0217 139.563 82.7678Z" fill="#E28B6D"/>
<path d="M201.888 121.481C202.463 123.523 203.701 125.306 205.322 126.594C206.95 127.879 208.911 128.724 210.956 129.089C213.002 129.46 215.132 129.363 217.149 128.824C218.159 128.559 219.142 128.173 220.069 127.677C221.009 127.2 221.884 126.596 222.719 125.93L223.011 126.241C222.258 127.044 221.386 127.737 220.451 128.338C219.503 128.92 218.483 129.392 217.419 129.739C215.286 130.427 212.975 130.565 210.761 130.158C208.555 129.747 206.418 128.801 204.728 127.3C203.886 126.553 203.147 125.683 202.585 124.711C202.036 123.734 201.637 122.67 201.471 121.575L201.888 121.484V121.481Z" fill="#AE5140"/>
<path d="M225.825 100.646L224.192 113.392C223.586 118.153 219.457 121.687 214.65 121.557C209.5 121.42 205.53 117.194 205.53 112.225C205.53 111.739 205.568 111.243 205.645 110.747L205.939 108.882L207.092 101.612L213.581 101.28L225.826 100.647L225.825 100.646Z" fill="#F9B384"/>
<path d="M203.101 79.6458C203.283 77.767 204.163 75.5275 205.166 73.4964C207.083 69.6147 210.795 66.9199 215.084 66.3022C221.529 65.3749 229.861 66.2791 234.398 72.4592C239.514 79.4271 235.263 93.359 229.779 94.5472C224.294 95.7354 203.101 79.6458 203.101 79.6458Z" fill="#102048"/>
<path d="M219.9 103.918C217.71 105.99 212.664 110.839 205.645 110.747L207.092 101.611L213.581 101.278L219.9 103.918Z" fill="#E28B6D"/>
<path d="M229.239 82.932L228.262 88.0095L228.021 89.2527L227.06 94.2484L226.508 97.112L225.825 100.646L222.487 102.647C222.487 102.647 221.575 103.259 219.899 103.919C219.899 103.919 219.899 103.924 219.894 103.924C217.365 104.928 213.099 106.041 207.626 105.321C207.245 105.272 206.883 105.184 206.545 105.065C203.967 104.186 202.645 101.476 202.066 98.0994C201.64 95.6182 201.608 92.7763 201.765 90.0329C202.011 85.7291 202.727 81.6658 203.097 79.6488C208.838 74.5278 216.675 73.5954 222.486 72.4609L229.237 82.9332L229.239 82.932Z" fill="#F9B384"/>
<path d="M203.101 79.6461C212.245 72.4595 224.562 79.7395 224.562 79.7395C224.562 79.7395 222.678 91.0585 226.319 90.1248C229.961 89.1899 233.656 81.6234 233.656 81.6234L225.322 69.624L207.09 72.7601L203.101 79.6461Z" fill="#102048"/>
<path d="M225.848 90.4969C227.64 87.3557 231.127 86.3479 233.001 88.7306C234.876 91.1134 234.948 98.6107 225.729 96.9916L225.848 90.4969Z" fill="#F9B384"/>
<path d="M210.52 88.015C209.927 89.6163 209.008 91.0424 208.409 92.5439C208.34 92.7255 208.251 92.934 208.208 93.0938C208.159 93.2524 208.133 93.4072 208.16 93.5249C208.164 93.6515 208.237 93.7397 208.326 93.8446C208.436 93.9354 208.573 94.0275 208.746 94.0927C209.433 94.3562 210.285 94.4214 211.114 94.5033L211.122 94.823C210.281 94.933 209.418 95.0341 208.504 94.7693C208.274 94.7092 208.041 94.589 207.824 94.4214C207.617 94.2385 207.415 93.9738 207.375 93.6758C207.312 93.3829 207.362 93.1092 207.428 92.8687C207.494 92.6257 207.567 92.4454 207.653 92.2382C208.326 90.6267 209.325 89.2697 210.233 87.873L210.52 88.0163V88.015Z" fill="#E28B6D"/>
<path d="M216.649 88.353C216.425 89.1076 215.809 89.5924 215.273 89.4338C214.736 89.2752 214.482 88.5346 214.705 87.7788C214.929 87.0242 215.545 86.5394 216.082 86.698C216.619 86.8566 216.872 87.5972 216.649 88.353Z" fill="#102048"/>
<path d="M206.94 87.894C207.164 87.1388 206.91 86.398 206.374 86.2395C205.837 86.081 205.221 86.5648 204.997 87.32C204.773 88.0753 205.027 88.816 205.563 88.9745C206.1 89.133 206.716 88.6492 206.94 87.894Z" fill="#102048"/>
<path d="M213.233 85.4395C213.694 85.0021 214.24 84.6389 214.856 84.3959C215.47 84.1503 216.163 84.0467 216.843 84.1298C217.524 84.2104 218.17 84.4841 218.705 84.8717C219.243 85.2579 219.682 85.7452 220.02 86.2836L219.779 86.4947C219.294 86.1161 218.821 85.7567 218.318 85.4779C217.816 85.2003 217.287 85.0085 216.741 84.9382C216.196 84.864 215.634 84.9177 215.076 85.0597C214.518 85.2042 213.971 85.4421 213.417 85.703L213.235 85.4395H213.233Z" fill="#102048"/>
<path d="M208.42 85.4829C207.975 84.773 207.246 84.4341 206.499 84.4367C206.127 84.4367 205.754 84.5249 205.394 84.6822C205.034 84.8408 204.693 85.0672 204.335 85.3268L204.085 85.1273C204.298 84.704 204.627 84.3254 205.049 84.0517C205.468 83.7767 205.982 83.6168 206.502 83.6232C207.021 83.6283 207.544 83.7908 207.957 84.1105C208.37 84.4213 208.669 84.892 208.724 85.3844L208.419 85.4841L208.42 85.4829Z" fill="#102048"/>
<path d="M207.037 97.1807L212.981 97.306C212.981 97.306 209.686 101.77 207.266 97.6155L207.038 97.1807H207.037Z" fill="white"/>
<path d="M227.272 92.8916C227.276 92.38 227.367 91.8646 227.55 91.3683C227.732 90.8721 228.02 90.3912 228.449 90.01C228.873 89.6289 229.47 89.3872 230.054 89.4153C230.639 89.4345 231.158 89.6967 231.547 90.0407L231.387 90.317C230.924 90.1776 230.478 90.0829 230.069 90.1341C229.663 90.1827 229.301 90.3528 228.987 90.6227C228.67 90.8912 228.411 91.2596 228.187 91.6586C227.964 92.0615 227.782 92.4989 227.587 92.953L227.272 92.8929V92.8916Z" fill="#E28B6D"/>
<path opacity="0.3" d="M219.864 98.8522C222.176 98.8522 224.051 96.9803 224.051 94.6712C224.051 92.3621 222.176 90.4902 219.864 90.4902C217.552 90.4902 215.677 92.3621 215.677 94.6712C215.677 96.9803 217.552 98.8522 219.864 98.8522Z" fill="#EE6F57"/>
<path opacity="0.3" d="M205.006 94.1058C205.006 95.9769 203.766 97.5641 202.068 98.0988C201.641 95.6175 201.609 92.7756 201.767 90.0322C203.624 90.4632 205.006 92.1208 205.006 94.1058Z" fill="#EE6F57"/>
<path d="M120.765 76.7093C120.765 76.7093 132.685 82.5363 130.476 92.2029L122.591 94.4065L120.765 76.708V76.7093Z" fill="#102048"/>
<path d="M120.765 76.7092C122.044 75.4507 128.605 68.2129 128.375 59.1654C128.201 52.3049 131.248 55.4039 131.64 60.1374C131.64 60.1374 133.315 50.4555 137.934 51.4365L136.576 53.2923C136.576 53.2923 138.327 50.013 139.741 50.8904C141.154 51.7678 139.874 54.5726 139.874 54.5726C139.874 54.5726 140.534 52.14 141.745 51.9545C142.957 51.769 144.069 55.5804 141.359 65.5245C141.359 65.5245 144.295 62.6174 145.455 62.1262C146.615 61.6351 146.537 69.2438 138.306 77.341C130.077 85.4382 124.255 91.7014 124.255 91.7014L120.765 76.7066V76.7092Z" fill="#F9B384"/>
<path d="M72.7329 116.374C73.0224 116.82 120.765 76.709 120.765 76.709L130.476 92.2026L81.7445 149.507L72.7329 116.374Z" fill="#708CD5"/>
<path d="M138.018 51.5028C137.449 52.3789 136.923 53.2896 136.439 54.2143C135.962 55.1441 135.51 56.0867 135.134 57.0587C134.734 58.0218 134.414 59.0143 134.146 60.0208L133.95 60.778L133.799 61.5441C133.67 62.0531 133.643 62.575 133.546 63.0917L133.333 63.0802C133.346 62.0186 133.444 60.9494 133.683 59.9096C133.918 58.8698 134.228 57.844 134.632 56.8579C135.043 55.8757 135.494 54.9088 136.035 53.9917C136.573 53.0734 137.161 52.1884 137.85 51.3711L138.019 51.5015L138.018 51.5028Z" fill="#E28B6D"/>
<path d="M139.976 54.6016C139.818 55.4662 139.631 56.3244 139.44 57.18C139.254 58.0382 139.034 58.8862 138.838 59.7418L138.187 62.2908C137.958 63.1375 137.731 63.9842 137.476 64.8257L137.268 64.781C137.382 63.9062 137.548 63.0428 137.722 62.1808C137.904 61.3213 138.104 60.4657 138.311 59.6126C138.536 58.7634 138.744 57.9103 138.992 57.0674C139.234 56.2233 139.483 55.3805 139.769 54.5479L139.975 54.6016H139.976Z" fill="#E28B6D"/>
<path d="M142.874 52.3496C143.185 55.3322 143.049 58.3416 142.609 61.3089C142.487 62.0494 142.359 62.7899 142.181 63.5202C142.096 63.886 142.005 64.2505 141.9 64.6125L141.825 64.8849L141.79 65.0115C141.795 65 141.793 64.968 141.78 64.9489C141.763 64.9092 141.691 64.8977 141.656 64.9246L141.848 64.7557C142.407 64.2608 142.972 63.7709 143.545 63.2887L144.413 62.5738C144.567 62.4523 144.694 62.3487 144.876 62.2169C145.132 62.0417 145.502 62.0724 145.727 62.2898C145.843 62.3845 145.917 62.5725 145.931 62.6735L145.986 62.9639C146.006 63.1583 146.04 63.3527 146.042 63.5458C146.054 63.7402 146.06 63.9333 146.049 64.1265C146.045 64.3196 146.037 64.5127 146.012 64.702C145.944 65.4681 145.762 66.2138 145.533 66.9364C145.063 68.3816 144.382 69.7399 143.59 71.0176C142.792 72.294 141.882 73.4899 140.929 74.6461C140.448 75.2191 139.933 75.7639 139.437 76.3241L137.871 77.9292L137.719 77.7796L139.217 76.1259C139.69 75.5516 140.179 74.9927 140.635 74.4069C141.554 73.243 142.428 72.0421 143.185 70.7733C143.929 69.4995 144.6 68.1796 145.037 66.7829C145.253 66.0859 145.421 65.3735 145.479 64.6534C145.502 64.4744 145.507 64.294 145.509 64.115C145.52 63.9346 145.512 63.7568 145.501 63.5791C145.498 63.4 145.465 63.2261 145.447 63.0496L145.397 62.7912C145.38 62.7081 145.378 62.717 145.352 62.6851C145.308 62.6416 145.225 62.6301 145.17 62.6684L144.746 62.9933L143.883 63.6942C143.312 64.1687 142.747 64.6534 142.186 65.142L141.955 65.3402C141.77 65.4899 141.456 65.4221 141.344 65.2187C141.282 65.1202 141.268 64.9885 141.296 64.8875L141.335 64.7442L141.411 64.4782C141.516 64.1252 141.608 63.7671 141.694 63.4077C141.871 62.6902 142.016 61.965 142.149 61.2372C142.4 59.7779 142.561 58.302 142.651 56.8222C142.74 55.3424 142.774 53.8524 142.661 52.3752L142.874 52.3534V52.3496Z" fill="#E28B6D"/>
<path d="M53.4535 151.205C53.4535 151.205 36.9583 144.708 30.2227 157.138C21.7529 172.769 34.48 191.135 34.48 191.135H56.8681L53.4535 151.205Z" fill="#FBC343"/>
<path d="M37.3054 156.33C36.8853 156.765 36.5267 157.256 36.2039 157.768C35.8786 158.278 35.6109 158.824 35.3663 159.379C34.8834 160.492 34.5146 161.655 34.2584 162.843C33.7435 165.218 33.5796 167.665 33.6936 170.095C33.7999 172.527 34.2084 174.941 34.8168 177.302C35.438 179.661 36.3 181.956 37.3246 184.18L37.1337 184.276C36.8545 183.727 36.5587 183.185 36.3089 182.622C36.1808 182.342 36.0425 182.066 35.9247 181.781L35.5622 180.929C35.1088 179.782 34.7003 178.615 34.3557 177.427C33.6859 175.048 33.2555 172.595 33.1492 170.119C33.0417 167.647 33.2197 165.15 33.8076 162.738C34.0983 161.533 34.4979 160.35 35.0281 159.226C35.2997 158.667 35.5968 158.118 35.9516 157.605C36.3012 157.09 36.6957 156.603 37.1542 156.177L37.3028 156.33H37.3054Z" fill="#102048"/>
<path d="M96.0023 96.6922C101.411 99.9881 105.151 98.0287 106.243 94.4706C107.336 90.9125 111.329 77.51 94.637 79.6702C94.637 79.6702 74.1817 71.4336 65.5249 83.5852C57.8888 94.3044 64.8947 101.715 53.2268 110.604C45.0913 116.802 35.8671 127.691 54.1631 146.313L74.0075 140.854L96.0023 96.6922Z" fill="#AE5140"/>
<path d="M89.8393 112.234C90.244 114.121 94.6204 119.004 96.3725 120.836C101.667 126.374 102.837 136.761 87.7388 139.937L79.2446 120.179L89.8393 112.236V112.234Z" fill="#6F3428"/>
<path d="M90.5923 114.704L88.8069 122.913L86.0315 135.686L70.5481 132.419L74.1906 107.369L89.9801 114.432L90.5923 114.704Z" fill="#F9B384"/>
<path d="M100.119 98.4766C100.119 98.4766 104.588 103.48 104.43 104.753C104.272 106.026 100.119 108.308 100.119 108.308V98.4766Z" fill="#E28B6D"/>
<path d="M90.5924 114.704L88.807 122.913C84.0451 120.382 80.5703 114.121 80.5703 114.121L89.9802 114.432L90.5924 114.704Z" fill="#E28B6D"/>
<path d="M101.167 109.862C100.539 114.618 98.9546 118.272 95.5682 118.599C86.207 119.504 72.7332 109.032 72.7332 109.032L73.4594 89.8561L83.6403 83.584L100.119 86.6382C100.316 88.8035 101.325 95.4248 101.489 102.084C101.555 104.768 101.484 107.456 101.167 109.862Z" fill="#F9B384"/>
<path d="M102.706 89.8561L100.675 91.4178C90.0839 83.1658 92.2792 95.0539 91.2968 98.8602C90.3132 102.666 85.295 101.664 81.3784 99.2042L80.6791 104.532L68.9087 104.903L68.2261 90.0083L79.9632 80.8457L101.69 85.0779L102.706 89.8561Z" fill="#AE5140"/>
<path d="M87.5017 145.163C93.2831 142.066 91.6438 133.982 89.3934 131.215C87.1431 128.449 77.5795 123.807 76.4204 115.096C75.7749 110.252 80.6803 104.532 80.6803 104.532L70.7312 99.2012L60.5361 115.208L68.2285 142.697L87.503 145.161L87.5017 145.163Z" fill="#AE5140"/>
<path d="M94.7048 189.528L46.1773 189.561C44.0576 158.533 51.8025 142.667 58.4984 134.875C62.7148 129.971 69.0828 127.545 75.5059 128.33C81.0927 129.017 85.943 131.668 90.8587 143.22L67.8866 153.888L82.6335 179.817C84.1141 182.423 86.2607 184.595 88.8491 186.11L94.7036 189.53L94.7048 189.528Z" fill="#708CD5"/>
<path d="M67.8879 153.886C67.8879 153.886 75.109 182.746 77.7845 186.545C80.5702 190.499 86.5515 189.505 96.977 189.528C129.26 189.597 96.977 189.528 96.977 189.528L83.8068 160.23L67.8879 153.887" fill="#1F3C88"/>
<path d="M126.8 181.683L124.714 189.352L96.977 189.528H94.7049L88.8505 186.108C86.262 184.592 84.1154 182.421 82.6349 179.815L67.8879 153.886L90.86 143.218C93.3281 149.004 95.8077 157.033 98.4026 168.159C98.7522 169.659 99.7948 170.913 101.21 171.529L126.8 181.683Z" fill="#708CD5"/>
<path d="M83.8067 101.313C82.9729 96.6923 77.4822 96.081 76.5267 99.203C75.5713 102.325 75.8044 107.689 82.7001 107.372L83.8067 101.315V101.313Z" fill="#F9B384"/>
<path d="M81.6038 101.676L80.7444 100.696C80.4587 100.391 80.1629 100.098 79.8555 99.9225C79.5417 99.7473 79.2932 99.6974 79.0051 99.8509C78.7092 100.001 78.4261 100.32 78.1328 100.648L77.8459 100.504C77.9676 100.056 78.1674 99.5925 78.6157 99.2459C78.8309 99.0656 79.1485 98.9697 79.4533 98.9658C79.7607 98.9812 80.0438 99.0784 80.2679 99.2203C80.7251 99.5017 81.0402 99.8777 81.2964 100.269C81.5512 100.663 81.7498 101.081 81.883 101.521L81.6025 101.676H81.6038Z" fill="#E28B6D"/>
<path opacity="0.2" d="M100.923 111.384C100.689 111.433 96.2854 110.172 96.2854 106.03C96.2854 103.821 98.2219 101.938 100.434 101.938C100.8 101.938 101.155 101.986 101.488 102.085C101.553 104.768 101.497 108.788 100.923 111.384Z" fill="#EE6F57"/>
<path d="M180.917 189.823H123.191L134.095 142.922H191.823L180.917 189.823Z" fill="#1F3C88"/>
<path opacity="0.6" d="M180.917 189.824L191.821 142.921C175.321 181.05 150.803 185.276 123.189 189.824" fill="#102048"/>
<path d="M160.701 167.711C161.58 165.618 160.862 163.323 159.098 162.584C157.335 161.846 155.192 162.944 154.313 165.037C153.434 167.129 154.152 169.425 155.916 170.164C157.68 170.902 159.822 169.804 160.701 167.711Z" fill="white"/>
<path d="M252.468 155.137L252.294 159.904L251.507 181.267V181.294C251.442 182.908 251.015 184.468 250.289 185.875C249.563 187.272 248.525 188.515 247.236 189.502H223.183L172.947 189.671C172.051 189.671 171.133 187.587 172.46 186.557C175.393 184.266 179.986 181.746 183.181 179.706C184.945 178.583 187.048 178.092 189.124 178.36C192.581 178.801 197.568 180.552 203.772 178.725C204.848 178.41 205.941 178.164 207.044 177.995L227.263 174.892L235.221 173.671L235.445 160.211L235.515 156.137C236.275 155.935 237.05 155.756 237.848 155.598C242.026 154.769 246.794 154.512 252.469 155.14L252.468 155.137Z" fill="#F9B384"/>
<path opacity="0.6" d="M252.468 155.137L252.294 159.904C249.356 158.873 238.005 155.65 235.515 156.134C236.275 155.932 237.05 155.753 237.848 155.595C242.026 154.766 246.794 154.509 252.469 155.137H252.468Z" fill="#E28B6D"/>
<path opacity="0.3" d="M251.506 181.267V181.294C251.44 182.908 251.014 184.469 250.288 185.875C249.562 187.272 248.524 188.515 247.234 189.503H239.926C241.204 182.484 246.53 180.302 251.505 181.267H251.506Z" fill="#EE6F57"/>
<path d="M232.165 173.978C233.019 173.634 233.916 173.343 234.846 173.235C235.77 173.091 236.717 173.097 237.648 173.197C238.58 173.294 239.5 173.513 240.373 173.84C241.251 174.162 242.081 174.595 242.829 175.17L242.652 175.436C241.849 175.062 240.997 174.767 240.149 174.522C239.298 174.279 238.43 174.1 237.556 174.004C236.681 173.9 235.797 173.867 234.915 173.927C234.028 173.962 233.154 174.12 232.262 174.28L232.164 173.976L232.165 173.978Z" fill="#E28B6D"/>
<path d="M291.99 189.55H0.467529V196.001H291.99V189.55Z" fill="#D3DFFF"/>
<path d="M44.0934 75.8559C41.8558 63.8002 30.2558 55.8386 18.1832 58.073C6.1118 60.3073 -1.86107 71.8923 0.37646 83.9467C2.61398 96.0024 14.214 103.964 26.2867 101.73C29.308 101.171 32.072 100.026 34.4837 98.435L42.1748 101.783L38.4746 95.0624C43.1225 90.0897 45.4318 83.0591 44.0946 75.8572L44.0934 75.8559Z" fill="#C6EAE9"/>
<path d="M13.9144 87.6503V80.896L13.5199 81.0917C13.1152 81.2925 12.6759 81.3935 12.2161 81.3935C10.5857 81.3935 9.25879 80.0685 9.25879 78.4403C9.25879 76.8122 10.5857 75.4833 12.2161 75.4833C12.6734 75.4833 13.1127 75.5844 13.5212 75.7826L13.9144 75.9745V69.2266H19.7727C19.6805 69.5399 19.6344 69.866 19.6344 70.1986C19.6344 72.1298 21.2072 73.7004 23.1412 73.7004C25.0752 73.7004 26.648 72.1298 26.648 70.1986C26.648 69.866 26.6019 69.5399 26.5096 69.2266H32.3679V75.1303C32.0029 75.0024 31.6174 74.9385 31.2165 74.9385C29.2825 74.9385 27.7097 76.5091 27.7097 78.4403C27.7097 80.3716 29.2825 81.9396 31.2165 81.9396C31.6084 81.9396 32.0003 81.8718 32.3679 81.7439V87.6516H13.9144V87.6503Z" fill="white"/>
<path d="M32.0951 69.4989V74.7658C31.8108 74.698 31.5175 74.6647 31.2165 74.6647C29.1314 74.6647 27.4356 76.3581 27.4356 78.4403C27.4356 80.5225 29.1314 82.212 31.2165 82.212C31.5123 82.212 31.8082 82.1762 32.0951 82.1071V87.3778H14.1885V80.4573L13.3995 80.8473C13.032 81.029 12.6349 81.121 12.2174 81.121C10.7368 81.121 9.53286 79.9188 9.53286 78.4403C9.53286 76.9618 10.7368 75.7557 12.2174 75.7557C12.6336 75.7557 13.032 75.8478 13.4034 76.0281L14.1885 76.4106V69.4989H19.4269C19.3833 69.7279 19.3616 69.9619 19.3616 70.1985C19.3616 72.2807 21.0573 73.9741 23.1424 73.9741C25.2276 73.9741 26.9233 72.2807 26.9233 70.1985C26.9233 69.9619 26.9015 69.7279 26.858 69.4989H32.0964M32.642 68.9541H26.1241C26.288 69.3378 26.3764 69.7586 26.3764 70.1985C26.3764 71.9802 24.9266 73.428 23.1424 73.428C21.3583 73.428 19.9085 71.9802 19.9085 70.1985C19.9085 69.7573 19.9981 69.3378 20.1608 68.9541H13.6429V75.5383C13.2113 75.3285 12.731 75.2109 12.2187 75.2109C10.4345 75.2109 8.98853 76.6548 8.98853 78.4403C8.98853 80.2258 10.4345 81.6659 12.2187 81.6659C12.731 81.6659 13.2125 81.5482 13.6429 81.3346V87.9227H32.6407V81.3321C32.2129 81.5457 31.7288 81.6659 31.2165 81.6659C29.4285 81.6659 27.9825 80.2219 27.9825 78.4403C27.9825 76.6587 29.4285 75.2109 31.2165 75.2109C31.7288 75.2109 32.2142 75.3285 32.6407 75.5421V68.9541H32.642Z" fill="#8CBFBE"/>
<path d="M255.579 76.1253C256.319 63.8867 266.855 54.5655 279.109 55.3048C291.365 56.044 300.699 66.5649 299.959 78.8022C299.219 91.0408 288.683 100.362 276.429 99.6227C273.361 99.4373 270.478 98.6405 267.888 97.3564L260.667 101.621L263.514 94.4979C258.291 90.1314 255.137 83.436 255.579 76.1253Z" fill="#D3DFFF"/>
<path d="M281.552 86.825C280.974 85.6164 279.755 84.8439 278.401 84.8439C277.047 84.8439 275.832 85.6164 275.257 86.825H269.161V80.0759L268.791 80.2613C268.383 80.4647 267.942 80.5683 267.481 80.5683C265.839 80.5683 264.503 79.2356 264.503 77.5985C264.503 75.9614 265.839 74.6248 267.481 74.6248C267.947 74.6248 268.388 74.7271 268.791 74.9292L269.161 75.1147V68.3693H275.714L275.595 68.0291C275.483 67.7132 275.427 67.3832 275.427 67.0469C275.427 65.4072 276.762 64.0732 278.401 64.0732C280.04 64.0732 281.379 65.4072 281.379 67.0469C281.379 67.3832 281.322 67.7132 281.211 68.0291L281.091 68.3693H287.643V86.8263H281.55L281.552 86.825Z" fill="white"/>
<path d="M278.401 64.3267C279.902 64.3267 281.123 65.5455 281.123 67.0445C281.123 67.3514 281.071 67.6533 280.97 67.9423L280.731 68.6227H287.388V86.5681H281.709C281.062 85.3544 279.8 84.587 278.401 84.587C277.002 84.587 275.742 85.3544 275.099 86.5681H269.418V79.6616L268.676 80.0313C268.303 80.2167 267.901 80.3114 267.48 80.3114C265.979 80.3114 264.758 79.0938 264.758 77.5974C264.758 76.101 265.979 74.8795 267.48 74.8795C267.905 74.8795 268.307 74.9729 268.676 75.1558L269.418 75.5254V68.6215H276.075L275.836 67.9398C275.734 67.652 275.683 67.3489 275.683 67.0419C275.683 65.543 276.902 64.3241 278.401 64.3241M278.401 63.8125C276.617 63.8125 275.171 65.2603 275.171 67.0419C275.171 67.4154 275.235 67.7748 275.353 68.1086H268.905V74.6966C268.478 74.483 267.993 74.3654 267.481 74.3654C265.693 74.3654 264.247 75.8093 264.247 77.5948C264.247 79.3803 265.693 80.8204 267.481 80.8204C267.993 80.8204 268.479 80.6989 268.905 80.4866V87.0772H275.423C275.907 85.9146 277.059 85.096 278.401 85.096C279.743 85.096 280.899 85.9146 281.386 87.0772H287.902V68.1086H281.454C281.572 67.7748 281.636 67.4154 281.636 67.0419C281.636 65.2603 280.19 63.8125 278.402 63.8125H278.401Z" fill="#708CD5"/>
<path opacity="0.2" d="M151.117 24.9872C151.117 30.5853 147.284 35.8841 142.198 37.4637H135.318C130.024 36.0159 126.13 30.7349 126.13 24.9872C126.13 18.0973 131.723 12.5107 138.624 12.5107C145.525 12.5107 151.118 18.0961 151.118 24.9872H151.117Z" fill="#FBC343"/>
<path d="M138.623 0V9.31482" stroke="#FBC343" stroke-width="8.53" stroke-miterlimit="10"/>
<path d="M129.873 11.9609L121.696 5.86523" stroke="#FBC343" stroke-width="8.53" stroke-miterlimit="10"/>
<path d="M147.375 11.9609L155.551 5.86523" stroke="#FBC343" stroke-width="8.53" stroke-miterlimit="10"/>
<path d="M134.172 10.2355L132.466 5.86523" stroke="#FBC343" stroke-width="8.53" stroke-miterlimit="10"/>
<path d="M143.075 10.2355L144.78 5.86523" stroke="#FBC343" stroke-width="8.53" stroke-miterlimit="10"/>
<path d="M146.612 26.5684C146.612 22.3414 142.817 18.9393 138.223 19.1478C134.148 19.3332 130.814 22.4578 130.642 26.2499C130.548 28.3654 131.404 30.2915 132.848 31.6946C134.378 33.182 135.319 35.1095 135.319 37.1673V37.4628H142.198V36.8501C142.198 34.8831 143.071 33.0349 144.504 31.5884C145.812 30.2672 146.612 28.5061 146.612 26.5684Z" fill="#FBC343"/>
<path d="M135.184 39.959H142.063V40.1291C142.063 42.0245 140.522 43.5644 138.623 43.5644C136.725 43.5644 135.183 42.0258 135.183 40.1291V39.959H135.184Z" fill="#FBC343"/>
<path opacity="0.8" d="M136.061 27.3609C137.105 27.3609 137.95 26.5163 137.95 25.4744C137.95 24.4325 137.105 23.5879 136.061 23.5879C135.018 23.5879 134.172 24.4325 134.172 25.4744C134.172 26.5163 135.018 27.3609 136.061 27.3609Z" fill="white"/>
<path d="M207.615 45.5108V41.2863H205.596C205.335 40.0981 204.859 38.9905 204.208 38.0057L205.654 36.5617L202.663 33.5753L201.181 35.0551C200.199 34.4425 199.103 33.9974 197.931 33.7608V31.6172H193.7V33.8337C192.572 34.101 191.519 34.5627 190.578 35.1817L188.968 33.574L185.977 36.5604L187.623 38.2039C187.039 39.1389 186.607 40.1774 186.363 41.2863H184.016V45.5108H186.363C186.607 46.6196 187.038 47.6582 187.623 48.5931L185.977 50.2366L188.968 53.223L190.578 51.6153C191.519 52.2344 192.572 52.6961 193.7 52.9634V55.1799H197.931V53.0363C199.103 52.7997 200.199 52.3546 201.181 51.742L202.663 53.2217L205.654 50.2353L204.208 48.7913C204.857 47.8065 205.335 46.6977 205.596 45.5108H207.615Z" fill="#F0F0F0"/>
<path d="M200.484 48.0605C203.063 45.4857 203.063 41.3112 200.484 38.7364C197.906 36.1616 193.726 36.1616 191.147 38.7364C188.569 41.3112 188.569 45.4857 191.147 48.0605C193.726 50.6353 197.906 50.6353 200.484 48.0605Z" fill="white"/>
<path d="M229.106 38.845L230.056 35.9366L228.667 35.4839C228.754 34.6078 228.676 33.738 228.449 32.9131L229.77 32.2429L228.383 29.5149L227.029 30.2017C226.491 29.5596 225.836 29.0071 225.082 28.5812L225.565 27.1053L222.652 26.1562L222.153 27.6821C221.316 27.613 220.486 27.6949 219.7 27.9097L218.953 26.4415L216.221 27.8266L216.985 29.3281C216.371 29.8397 215.841 30.4587 215.424 31.1673L213.808 30.6404L212.858 33.5488L214.473 34.0757C214.391 34.8942 214.455 35.7064 214.647 36.4802L213.144 37.2425L214.531 39.9705L216.001 39.2249C216.51 39.8618 217.131 40.4156 217.847 40.8543L217.347 42.3801L220.26 43.3291L220.743 41.8532C221.602 41.9529 222.458 41.8928 223.272 41.6908L223.96 43.0426L226.692 41.6575L226.021 40.3389C226.689 39.8068 227.267 39.1507 227.715 38.391L229.105 38.8437L229.106 38.845Z" fill="#F0F0F0"/>
<path d="M225.856 36.6405C226.903 34.2196 225.786 31.4099 223.361 30.3648C220.937 29.3197 218.123 30.435 217.077 32.8558C216.03 35.2767 217.147 38.0865 219.571 39.1316C221.996 40.1767 224.809 39.0614 225.856 36.6405Z" fill="white"/>
<path d="M94.1785 47.3548L96.311 44.4464L94.9213 43.4296C95.3414 42.4793 95.572 41.4766 95.6219 40.4713L97.3471 40.2053L96.7964 36.6421L95.0289 36.9145C94.6626 35.9987 94.1324 35.1393 93.4446 34.3872L94.5269 32.9113L91.6144 30.7818L90.495 32.3089C89.5831 31.9252 88.625 31.7129 87.6644 31.6655L87.3673 29.7471L83.799 30.297L84.1026 32.2577C83.2278 32.6069 82.4068 33.1044 81.6781 33.7452L80.063 32.5634L77.9305 35.4718L79.5456 36.6536C79.1536 37.5399 78.9257 38.4723 78.8565 39.4098L76.8931 39.7129L77.4438 43.2761L79.365 42.9794C79.7005 43.8798 80.1924 44.7278 80.834 45.4798L79.7146 47.0069L82.6271 49.1364L83.7094 47.6605C84.6354 48.0877 85.6152 48.3332 86.6014 48.4061L86.8742 50.1711L90.4425 49.6212L90.1761 47.8984C91.1213 47.5466 92.0088 47.0248 92.7888 46.338L94.1785 47.3548Z" fill="#F0F0F0"/>
<path d="M92.757 40.2202C92.8992 37.1162 90.4947 34.4847 87.3863 34.3426C84.2779 34.2006 81.6427 36.6018 81.5005 39.7058C81.3582 42.8099 83.7628 45.4413 86.8712 45.5834C89.9796 45.7254 92.6148 43.3242 92.757 40.2202Z" fill="white"/>
<path d="M68.0915 41.0075L70.215 39.4842L69.4863 38.4726C69.9896 37.9124 70.3739 37.2742 70.6351 36.5937L71.8826 36.7971L72.3053 34.2199L71.0271 34.0115C70.981 33.2978 70.8093 32.588 70.5058 31.9152L71.5829 31.1427L70.0575 29.0222L68.9432 29.8215C68.4015 29.3534 67.7905 28.9915 67.1399 28.7434L67.3679 27.3557L64.7871 26.9336L64.5553 28.352C63.8752 28.3955 63.1964 28.5541 62.5521 28.8316L61.7055 27.6562L59.582 29.1795L60.4286 30.3549C59.9598 30.8767 59.5922 31.4676 59.3335 32.0981L57.9131 31.8666L57.4905 34.4438L58.8801 34.6714C58.9083 35.3659 59.0569 36.0604 59.3284 36.7229L58.2141 37.5223L59.7395 39.6428L60.8167 38.8703C61.3584 39.373 61.9771 39.7618 62.6392 40.0329L62.4305 41.3093L65.0112 41.7314L65.2149 40.4857C65.9449 40.4563 66.6737 40.2951 67.3653 39.9984L68.0941 41.0101L68.0915 41.0075Z" fill="#F0F0F0"/>
<path d="M65.8561 38.2979C68.0464 37.7679 69.3917 35.5652 68.861 33.3781C68.3304 31.1909 66.1246 29.8474 63.9343 30.3774C61.7441 30.9073 60.3987 33.11 60.9294 35.2972C61.4601 37.4843 63.6659 38.8278 65.8561 38.2979Z" fill="white"/>
</g>
<defs>
<clipPath id="clip0_162_10375">
<rect width="300" height="196" fill="white"/>
</clipPath>
</defs>
</svg>
