<svg width="60" height="60" viewBox="0 0 60 60" fill="none" xmlns="http://www.w3.org/2000/svg">
<rect width="60" height="60" rx="30" fill="#E7E7FF"/>
<path d="M31.8742 39.7493C31.6837 40.0777 31.4103 40.3502 31.0814 40.5397C30.7525 40.7291 30.3796 40.8288 30 40.8288C29.6204 40.8288 29.2475 40.7291 28.9186 40.5397C28.5897 40.3502 28.3163 40.0777 28.1258 39.7493M36.5 25.666C36.5 23.9421 35.8152 22.2888 34.5962 21.0698C33.3772 19.8508 31.7239 19.166 30 19.166C28.2761 19.166 26.6228 19.8508 25.4038 21.0698C24.1848 22.2888 23.5 23.9421 23.5 25.666C23.5 33.2493 20.25 35.416 20.25 35.416H39.75C39.75 35.416 36.5 33.2493 36.5 25.666Z" stroke="#5538EE" stroke-width="1.5" stroke-linecap="round" stroke-linejoin="round"/>
</svg>
