<svg width="51" height="51" viewBox="0 0 51 51" fill="none" xmlns="http://www.w3.org/2000/svg">
<g clip-path="url(#clip0_180_10499)">
<path d="M46.6143 12.5982C47.6712 11.5636 49.0919 9.3143 49.9861 7.24281C50.858 5.24029 51.6139 2.56261 50.2611 1.23526C47.7267 -1.23915 40.2828 3.1918 38.6438 4.81438L33.3458 10.35L29.276 9.4728L30.159 8.61735C30.582 8.18901 30.8237 7.62637 30.8237 7.04074C30.8237 6.45511 30.582 5.8719 30.159 5.44357L29.5498 4.83495C28.6557 3.95771 27.198 3.95771 26.3039 4.83495L22.9322 8.14303L18.9524 7.31057L19.9625 6.31959C20.8455 5.44236 20.8455 4.00127 19.9625 3.12404L19.3421 2.53962C18.448 1.66238 16.9903 1.66238 16.1073 2.53962L12.5975 5.96144L8.36495 5.06001C7.49304 4.88093 6.58783 4.99346 5.78622 5.39638L2.85971 6.83747C2.04699 7.24281 1.55369 8.0535 1.57712 8.95251C1.61042 9.82975 2.13825 10.6187 2.9744 10.978L23.9743 20.071L13.2301 31.2549C13.0674 31.4339 12.8491 31.5247 12.6209 31.5041L7.79149 31.3008C6.42751 31.2779 5.0845 31.6142 3.92894 32.3354L1.32431 33.9325C0.819905 34.2254 0.544889 34.788 0.602852 35.3506C0.647249 35.9351 1.02586 36.4312 1.56479 36.6344L9.79923 39.8542L7.38945 42.2161C7.091 42.5089 7.091 42.9808 7.38945 43.2966C7.53867 43.4297 7.74586 43.4999 7.94071 43.4999C8.13557 43.4999 8.33042 43.4309 8.48951 43.2966L10.8857 40.9323L14.1662 48.9883C14.3845 49.5292 14.8901 49.9115 15.4747 49.9563H15.6103C16.1505 49.9563 16.6438 49.6865 16.9299 49.2364L18.5578 46.6712C19.2817 45.5447 19.648 44.2404 19.5999 42.8888L19.3927 38.1626C19.3828 37.94 19.4741 37.7137 19.6344 37.5576L31.0445 27.0006L40.3124 47.6162C40.6787 48.4487 41.4704 48.9665 42.3892 48.9871H42.4459C43.3289 48.9871 44.1318 48.5152 44.5338 47.7287L46.0113 44.849C46.4034 44.0843 46.528 43.1828 46.3332 42.3286L45.4304 38.1651L48.9304 34.7457C49.8245 33.8684 49.8245 32.4273 48.9304 31.5501L48.3212 30.9657C47.4271 30.0884 45.9693 30.0884 45.0752 30.9657L44.0652 31.9567L43.2056 28.0412L46.5773 24.7331C47.4714 23.8558 47.4714 22.4377 46.5773 21.5593L45.9681 20.9507C45.074 20.0746 43.6163 20.0746 42.7222 20.9507L41.8392 21.8073L40.9673 17.8229L46.6106 12.5994L46.6143 12.5982ZM27.3941 5.91546C27.5421 5.77994 27.7369 5.68919 27.9207 5.68919C28.1155 5.68919 28.3104 5.77873 28.4485 5.91546L29.0688 6.52408C29.2045 6.65718 29.276 6.83747 29.276 7.04074C29.276 7.21982 29.2057 7.40253 29.0688 7.55861L27.4853 9.11223L24.7327 8.52781L27.3941 5.91667V5.91546ZM17.1988 3.59714C17.3467 3.46404 17.533 3.39386 17.7266 3.39386C17.9202 3.39386 18.1052 3.46283 18.2532 3.59714L18.8624 4.20576C19.1609 4.49857 19.1609 4.94748 18.8624 5.24029L17.1531 6.927L14.403 6.34379L17.2 3.59593L17.1988 3.59714ZM3.59596 9.58412C3.30984 9.47159 3.13842 9.22476 3.12609 8.90895C3.11376 8.59315 3.28518 8.34752 3.5602 8.1878L6.48424 6.74672C6.96768 6.52408 7.51771 6.43333 8.03444 6.54344L32.1063 11.6314L27.7468 16.1519L12.4261 9.58291C12.0364 9.42319 11.5763 9.6059 11.4037 9.98825C11.2446 10.3706 11.4148 10.8207 11.8057 10.9768L26.6245 17.3232L25.0977 18.8998L3.59596 9.58412ZM18.5862 36.4529C18.0929 36.9018 17.8302 37.5564 17.8511 38.2086L18.0583 42.9336C18.0941 43.9705 17.8067 45.0051 17.2555 45.8835L15.6042 48.4487L12.0832 39.7622L15.122 36.7687C15.4204 36.4759 15.4204 36.004 15.122 35.71C14.8235 35.3942 14.3302 35.3942 14.0318 35.71L10.993 38.6805L2.13949 35.2151L4.75275 33.618C5.60123 33.0771 6.57797 32.8073 7.57444 32.8073H7.73723L12.5531 33.0335C13.2314 33.0541 13.885 32.7843 14.3549 32.3124L39.7574 5.87069C41.5938 4.06782 47.8562 1.00899 49.161 2.29157C49.5976 2.74047 49.6654 4.09081 48.5653 6.65597C47.6379 8.794 46.3085 10.7735 45.5377 11.5177L18.5862 36.4517V36.4529ZM46.1667 32.0426C46.3147 31.8865 46.5095 31.8163 46.6945 31.8163C46.8894 31.8163 47.0842 31.8853 47.2322 32.0426L47.8414 32.627C48.1275 32.9198 48.1275 33.3917 47.8414 33.6615L45.0419 36.4057L44.4574 33.7075L46.1667 32.0413V32.0426ZM43.8148 22.0276C43.9628 21.8715 44.1577 21.8049 44.3427 21.8049C44.5375 21.8049 44.7324 21.8715 44.8693 22.0276L45.4896 22.6362C45.7757 22.906 45.7757 23.3779 45.4896 23.6707L42.8282 26.2818L42.2326 23.5812L43.8161 22.0276H43.8148ZM44.836 42.6432C44.9396 43.1599 44.8693 43.7019 44.6288 44.1738L43.1489 47.0536C43.0108 47.3234 42.7358 47.5025 42.425 47.4795C42.1142 47.4565 41.8527 47.3004 41.7245 47.0076L32.2284 25.8995L33.8465 24.4124L40.3149 38.9515C40.4394 39.2444 40.7169 39.4004 41.0154 39.4004C41.1276 39.4004 41.2188 39.3799 41.3237 39.3339C41.7134 39.1778 41.8996 38.7253 41.7257 38.3429L35.0415 23.3113L39.6612 19.0341L44.8347 42.642L44.836 42.6432Z" fill="#5538EE"/>
<path d="M41.4545 6.41211H41.4434C41.0204 6.41211 40.6751 6.74848 40.6751 7.15383C40.664 7.58216 41.0093 7.91853 41.4311 7.94152C42.5101 7.94152 43.4154 8.81876 43.4277 9.90048C43.4388 10.3046 43.7829 10.6422 44.2071 10.6422H44.2182C44.6437 10.6192 44.9865 10.2828 44.9742 9.8545C44.9421 8.00807 43.3586 6.43389 41.4532 6.41211H41.4545Z" fill="#5538EE"/>
<path d="M1.31452 21.8951L6.40663 16.8991C6.70508 16.6063 6.70508 16.1344 6.40663 15.8404C6.09585 15.5246 5.60378 15.5246 5.30657 15.8404L0.224324 20.8122C-0.0741236 21.105 -0.0741236 21.5999 0.224324 21.8927C0.373548 22.0488 0.569635 22.1153 0.775589 22.1153C0.971676 22.1165 1.16653 22.05 1.31452 21.8939V21.8951Z" fill="#5538EE"/>
<path d="M9.803 25.8784L14.8828 20.9066C15.1911 20.6138 15.1911 20.1189 14.8828 19.8261C14.5843 19.5332 14.091 19.5332 13.7926 19.8261L8.71404 24.8209C8.40326 25.1137 8.40326 25.5856 8.71404 25.8796C8.86203 26.0393 9.05689 26.1059 9.25174 26.1059C9.45769 26.1046 9.65378 26.0381 9.803 25.8796V25.8784Z" fill="#5538EE"/>
<path d="M34.2525 44.2192L29.1604 49.2152C28.8619 49.508 28.8619 50.0029 29.1604 50.274C29.3083 50.4301 29.5155 50.5002 29.7092 50.5002C29.9028 50.5002 30.0989 50.4313 30.2604 50.274L35.3402 45.3022C35.6386 45.0093 35.6386 44.5375 35.3402 44.2216C35.043 43.9276 34.5509 43.9276 34.2525 44.2204V44.2192Z" fill="#5538EE"/>
<path d="M31.2702 35.9165C30.9718 35.6007 30.4785 35.6007 30.18 35.9165L25.1003 40.8883C24.7895 41.1812 24.7895 41.676 25.1003 41.9689C25.2495 42.1249 25.4456 42.1915 25.6404 42.1915C25.8353 42.1915 26.0425 42.1249 26.1892 41.9689L31.269 36.9729C31.5687 36.6812 31.5687 36.2081 31.2702 35.9165V35.9165Z" fill="#5538EE"/>
</g>
<defs>
<clipPath id="clip0_180_10499">
<rect width="51" height="50" fill="white" transform="translate(0 0.5)"/>
</clipPath>
</defs>
</svg>
